<?xml version="1.0" encoding="UTF-8"?>
<svg width="90px" height="55px" viewBox="0 0 90 55" version="1.1" xmlns="http://www.w3.org/2000/svg" xmlns:xlink="http://www.w3.org/1999/xlink">
    <!-- Generator: Sketch 54.1 (76490) - https://sketchapp.com -->
    <title>Shape</title>
    <desc>Created with Sketch.</desc>
    <defs>
        <linearGradient x1="50%" y1="0%" x2="50%" y2="100%" id="linearGradient-1">
            <stop stop-color="#15C1F6" offset="0%"></stop>
            <stop stop-color="#098DEA" offset="100%"></stop>
        </linearGradient>
    </defs>
    <g id="Page-1" stroke="none" stroke-width="1" fill="none" fill-rule="evenodd">
        <g id="homescreen" transform="translate(-303.000000, -1857.000000)" fill="url(#linearGradient-1)" fill-rule="nonzero">
            <g id="unique" transform="translate(0.000000, 1526.000000)">
                <g id="list" transform="translate(157.000000, 229.000000)">
                    <g id="technology" transform="translate(57.000000, 58.000000)">
                        <path d="M160.322587,62.3470998 C160.052047,62.3470998 159.832727,62.1269418 159.832727,61.8553683 C159.832727,61.5837948 160.052047,61.3636368 160.322587,61.3636368 L163.079126,61.3636368 C163.349665,61.3636368 163.568985,61.5837948 163.568985,61.8553683 C163.568985,62.1269418 163.349665,62.3470998 163.079126,62.3470998 L160.322587,62.3470998 Z M109.769154,77.5232129 C110.025938,77.607004 110.16643,77.8839472 110.082958,78.1417128 C109.999486,78.3994785 109.723597,78.5405071 109.466812,78.456716 C105.68776,77.2208374 102.76022,75.3290676 100.60086,73.0701907 C98.1685882,70.5258734 96.7133323,67.5198793 96.1143709,64.4607192 C95.5129211,61.3887741 95.1558917,57.753403 95.2619169,54.5168458 C95.35307,51.7348059 95.7899074,49.2348822 96.7110398,47.6074672 C97.0198278,47.061901 97.5386873,46.5830725 98.2220613,46.1696443 C100.531319,44.772576 104.896714,44.0417647 109.265931,44.0017377 C113.632247,43.9617501 118.036714,44.6116618 120.428679,45.9759217 C121.155475,46.3904317 121.71123,46.8758298 122.046529,47.4342991 C122.784121,48.6628214 123.046353,51.3085534 123.018411,54.2633287 C122.983494,57.9576879 122.505117,62.178908 121.94456,64.6531829 C121.384082,67.1270842 119.736507,69.9843787 117.347422,72.1099177 C115.344091,73.8922084 112.815749,75.1686451 109.960317,75.2924237 L109.884114,75.2957085 L109.818728,75.2789896 C107.174719,74.6020523 104.69499,73.0662568 102.762003,71.0454566 C100.842027,69.0382479 99.4570958,66.5469984 98.9808933,63.9369465 C98.5145468,61.3808867 98.2878201,58.2366964 98.2989497,55.5336286 C98.3102948,52.7862656 98.5777975,50.4587429 99.0999096,49.5895977 C99.6231975,48.7184068 101.189299,47.9763249 103.198958,47.4908875 C105.158104,47.0176648 107.574504,46.7655245 109.84424,46.8643822 L110.310841,46.8847203 L110.325733,70.3642511 C110.325733,70.6347428 110.107255,70.8540551 109.837793,70.8540551 C109.568331,70.8540551 109.349854,70.6347428 109.349854,70.3642511 L109.33555,47.8288448 C107.293148,47.7843726 105.168234,48.0225083 103.424764,48.4436272 C101.659133,48.8701158 100.320797,49.4595052 99.9380401,50.0967105 C99.5071791,50.8139895 99.2854881,52.9533559 99.2748288,55.5374837 C99.2639147,58.1844745 99.485586,61.2613369 99.9414888,63.7602378 C100.382206,66.1757607 101.673417,68.4912654 103.466187,70.3654903 C105.26021,72.2410133 107.552362,73.6690606 109.99398,74.3090394 C112.572543,74.1766456 114.869006,73.0057345 116.70065,71.3761756 C118.934744,69.3885378 120.472179,66.7310043 120.991646,64.4380406 C121.540152,62.0170299 122.008262,57.8806238 122.042532,54.2556577 C122.068926,51.462721 121.844511,49.0008967 121.208399,47.941412 C120.96247,47.5317799 120.528003,47.1604636 119.946461,46.8287809 C117.705686,45.550751 113.488189,44.9427545 109.273573,44.9813456 C105.061856,45.0199367 100.887095,45.7043089 98.7272439,47.0109772 C98.1832644,47.3400636 97.7816381,47.7010929 97.5606526,48.0915277 C96.723443,49.5706562 96.3241093,51.9128127 96.237796,54.5475692 C96.1344552,57.7025383 96.4849793,61.2590946 97.0749664,64.2724844 C97.6397356,67.1570602 99.0118328,69.9913809 101.305043,72.3902243 C103.358359,74.5381666 106.152245,76.3403626 109.769154,77.5232129 L109.769154,77.5232129 Z M125.87692,96.7639001 C125.607457,96.7639001 125.38898,96.5445878 125.38898,96.2740962 C125.38898,96.0036045 125.607457,95.7842922 125.87692,95.7842922 L142.12308,95.8010111 C142.392543,95.8010111 142.61102,96.0203234 142.61102,96.290815 C142.61102,96.5613067 142.392543,96.780619 142.12308,96.780619 L125.87692,96.7639001 Z M91.1720971,98.016537 L176.827864,98.016537 C177.155247,98.016537 177.453277,97.8817042 177.669619,97.6645359 C177.885961,97.4473676 178.02028,97.1482178 178.02028,96.8195838 L178.02028,94.7629855 C178.02028,94.7245911 178.004252,94.6892848 177.978486,94.6634197 C177.952699,94.6375547 177.917527,94.6214652 177.879279,94.6214652 L90.1207012,94.6214652 C90.082453,94.6214652 90.047281,94.6375547 90.0215144,94.6634197 C89.9957478,94.6892848 89.9797196,94.7245911 89.9797196,94.7629855 L89.9797196,96.8195838 C89.9797196,97.1482178 90.1140195,97.4473676 90.3303612,97.6645359 C90.5467029,97.8817042 90.844714,98.016537 91.1720971,98.016537 Z M176.827864,99 L91.1720971,99 C90.5742526,99 90.0310961,98.7548227 89.6376603,98.3598836 C89.2442245,97.9649445 89,97.4197126 89,96.8195838 L89,94.7629855 C89,94.4530963 89.1259528,94.1717079 89.3288135,93.968072 C89.5316742,93.7644362 89.8119916,93.6380022 90.1207012,93.6380022 L177.879279,93.6380022 C178.187989,93.6380022 178.468287,93.7644362 178.671187,93.968072 C178.874047,94.1717079 179,94.4530963 179,94.7629855 L179,96.8195838 C179,97.4197126 178.755756,97.9649445 178.36232,98.3598836 C177.968884,98.7548227 177.425708,99 176.827864,99 L176.827864,99 Z M161.700856,83.6746169 C162.341926,83.6746169 162.922351,83.9355099 163.342494,84.3572385 C163.762617,84.7789868 164.022517,85.361669 164.022517,86.0051489 C164.022517,86.6486681 163.762617,87.2313109 163.342494,87.6530592 C162.922351,88.0747878 162.341926,88.3356809 161.700856,88.3356809 C161.059826,88.3356809 160.479361,88.0747878 160.059218,87.6530592 C159.639095,87.2313109 159.379195,86.6486681 159.379195,86.0051489 C159.379195,85.361669 159.639095,84.7789868 160.059218,84.3572385 C160.479361,83.9355099 161.059826,83.6746169 161.700856,83.6746169 Z M162.649793,85.0525863 C162.406979,84.8088644 162.071464,84.6580799 161.700856,84.6580799 C161.330267,84.6580799 160.994733,84.8088644 160.751919,85.0525863 C160.509125,85.2963277 160.358915,85.6331442 160.358915,86.0051489 C160.358915,86.3771733 160.509125,86.71397 160.751919,86.9577115 C160.994733,87.2014333 161.330267,87.3522179 161.700856,87.3522179 C162.071464,87.3522179 162.406979,87.2014333 162.649793,86.9577115 C162.892587,86.71397 163.042798,86.3771733 163.042798,86.0051489 C163.042798,85.6331442 162.892587,85.2963277 162.649793,85.0525863 Z M154.599359,59.0402447 L168.802354,59.0402447 C169.196691,59.0402447 169.554837,59.2018277 169.81413,59.462111 C170.073422,59.7223943 170.23439,60.0819091 170.23439,60.4777529 L170.23439,89.3601347 C170.23439,89.7559785 170.073422,90.1154933 169.81413,90.3757766 C169.554837,90.6360599 169.196691,90.7976429 168.802354,90.7976429 L154.599359,90.7976429 C154.205061,90.7976429 153.846914,90.6360796 153.587583,90.3757766 C153.32829,90.1154933 153.167322,89.7559785 153.167322,89.3601347 L153.167322,60.4777529 C153.167322,60.0819091 153.32829,59.7223943 153.587583,59.462111 C153.846914,59.201808 154.205061,59.0402447 154.599359,59.0402447 Z M168.802354,60.0237077 L154.599359,60.0237077 C154.475483,60.0237077 154.362482,60.0749461 154.280284,60.1574587 C154.198085,60.2399712 154.147042,60.3534039 154.147042,60.4777529 L154.147042,89.3601347 C154.147042,89.4844837 154.198085,89.5979164 154.280284,89.6804289 C154.362482,89.7629415 154.475483,89.8141799 154.599359,89.8141799 L168.802354,89.8141799 C168.926229,89.8141799 169.03923,89.7629415 169.121429,89.6804289 C169.203627,89.5979164 169.25467,89.4844837 169.25467,89.3601347 L169.25467,60.4777529 C169.25467,60.3534039 169.203627,60.2399712 169.121429,60.1574587 C169.03923,60.0749461 168.926229,60.0237077 168.802354,60.0237077 Z M101.413439,87.3068409 C101.413439,87.5784144 101.194119,87.7985724 100.923579,87.7985724 C100.653039,87.7985724 100.433719,87.5784144 100.433719,87.3068409 L100.433719,76.3666407 C100.433719,76.0950672 100.653039,75.8749092 100.923579,75.8749092 C101.194119,75.8749092 101.413439,76.0950672 101.413439,76.3666407 L101.413439,87.3068409 L101.413439,87.3068409 Z M125.473118,50.1867367 C125.202579,50.1867367 124.983259,49.9665787 124.983259,49.6950052 C124.983259,49.4234317 125.202579,49.2032737 125.473118,49.2032737 L165.072777,49.2032737 C165.99581,49.2032737 166.586953,49.2925131 166.998259,49.6485268 C167.426043,50.0187809 167.566281,50.5806137 167.566281,51.5092782 L167.566281,56.0031535 C167.566281,56.274727 167.346961,56.494885 167.076421,56.494885 C166.805881,56.494885 166.586561,56.274727 166.586561,56.0031535 L166.586561,51.5092782 C166.586561,50.8835793 166.530403,50.5382264 166.359129,50.3899792 C166.171395,50.2274718 165.760638,50.1867367 165.072777,50.1867367 L125.473118,50.1867367 L125.473118,50.1867367 Z M98.9708414,91.9766381 C98.9708414,92.2482116 98.7515213,92.4683696 98.4809816,92.4683696 C98.2104418,92.4683696 97.9911218,92.2482116 97.9911218,91.9766381 L97.9911218,74.1598874 C97.9911218,73.8883139 98.2104418,73.6681558 98.4809816,73.6681558 C98.7515213,73.6681558 98.9708414,73.8883139 98.9708414,74.1598874 L98.9708414,91.9766381 Z M124.597406,47.7966855 C124.326866,47.7966855 124.107546,47.5765275 124.107546,47.304954 C124.107546,47.0333805 124.326866,46.8132225 124.597406,46.8132225 L166.364772,46.8132225 C167.367358,46.8132225 168.278517,47.2246641 168.93875,47.8874198 C169.599022,48.5502149 170.008878,49.4648945 170.008878,50.4712723 L170.008878,56.1419398 C170.008878,56.4135133 169.789558,56.6336713 169.519018,56.6336713 C169.248479,56.6336713 169.029159,56.4135133 169.029159,56.1419398 L169.029159,50.4712723 C169.029159,49.7363893 168.729227,49.0677918 168.246049,48.5827675 C167.76291,48.0977826 167.096916,47.7966855 166.364772,47.7966855 L124.597406,47.7966855 L124.597406,47.7966855 Z" id="Shape"></path>
                    </g>
                </g>
            </g>
        </g>
    </g>
</svg>