<svg width="150" height="150" xmlns="http://www.w3.org/2000/svg"><defs><linearGradient x1="50%" y1="0%" x2="50%" y2="100%" id="a"><stop stop-color="#DDD188" offset="0%"/><stop stop-color="#B9A450" offset="100%"/></linearGradient><linearGradient x1="50%" y1="0%" x2="50%" y2="100%" id="b"><stop stop-color="#DDD188" offset="0%"/><stop stop-color="#B9A450" offset="100%"/></linearGradient></defs><g fill="none" fill-rule="evenodd"><circle fill="#BAA551" opacity=".043" cx="75" cy="75" r="75"/><g fill-rule="nonzero"><path d="M66 45.718c0-4.253-2.46-8.09-6.32-9.961.002-.06.002-.12.002-.179C59.682 29.745 54.825 25 48.854 25c-2.286 0-4.511.713-6.352 2.022A10.997 10.997 0 0 0 36.146 25c-5.969 0-10.826 4.745-10.826 10.578 0 .06 0 .12.002.177C21.458 37.626 19 41.463 19 45.717c0 4.414 2.678 8.38 6.758 10.151a11.573 11.573 0 0 0-.436 3.142c0 6.61 5.504 11.99 12.268 11.99 1.697 0 3.348-.34 4.914-1.012A12.361 12.361 0 0 0 47.414 71c6.768 0 12.272-5.38 12.272-11.99 0-1.05-.146-2.102-.436-3.142 4.074-1.767 6.75-5.733 6.75-10.15zm-7.628 8.36c-.993-1.59-2.86-3.184-5.626-4.12.152-2.818 1.352-4.87 2.445-4.87a.99.99 0 0 0 1.002-.979.99.99 0 0 0-1.002-.978c-2.325 0-4.112 2.656-4.416 6.32a17.218 17.218 0 0 0-3.223-.319.99.99 0 0 0-1.002.98.99.99 0 0 0 1.002.978c5.456 0 8.497 2.476 9.446 4.596.028.063.09.094.126.147.359 1.05.555 2.118.555 3.18 0 5.531-4.607 10.031-10.27 10.031a10.26 10.26 0 0 1-3.85-.76c.303-4.588 3.824-8.232 8.153-8.232a.99.99 0 0 0 1.002-.98.99.99 0 0 0-1.002-.978c-4.062 0-7.57 2.533-9.214 6.18-1.645-3.647-5.152-6.18-9.216-6.18a.99.99 0 0 0-1.002.979.99.99 0 0 0 1.002.979c4.33 0 7.85 3.644 8.154 8.235a10.339 10.339 0 0 1-3.852.757c-5.66 0-10.265-4.5-10.265-10.032 0-1.075.198-2.143.557-3.183.038-.053.098-.084.126-.145.943-2.118 3.984-4.594 9.442-4.594a.99.99 0 0 0 1.002-.979.99.99 0 0 0-1.002-.979c-1.178 0-2.23.132-3.223.32-.304-3.667-2.089-6.321-4.412-6.321a.99.99 0 0 0-1.002.978.99.99 0 0 0 1.002.98c1.09 0 2.29 2.05 2.441 4.87-2.766.933-4.633 2.527-5.624 4.116-3.386-1.446-5.627-4.704-5.627-8.357 0-3.68 2.235-6.978 5.697-8.423.048-.011.096-.01.142-.031l.335-.155c2.708-1.294 4.677-1.634 5.852-1.008.772.41 1.248 1.316 1.419 2.692a.997.997 0 0 0 1.115.855.987.987 0 0 0 .876-1.09c-.253-2.042-1.076-3.447-2.45-4.178-2.117-1.123-4.898-.24-6.59.474.382-4.41 4.136-7.898 8.747-7.898 2.083 0 4.11.73 5.707 2.055a1.02 1.02 0 0 0 1.298 0 8.929 8.929 0 0 1 5.703-2.055c4.569 0 8.294 3.421 8.737 7.773-1.696-.717-4.465-1.592-6.578-.476-1.376.73-2.201 2.136-2.454 4.178a.986.986 0 0 0 .998 1.096.992.992 0 0 0 .991-.861c.17-1.379.65-2.285 1.423-2.692 1.173-.625 3.148-.284 5.86 1.018l.21.098c.073.058.121.14.21.176 3.49 1.433 5.746 4.749 5.746 8.449.004 3.658-2.238 6.914-5.62 8.362z" fill="url(#a)" transform="translate(32 27)"/><path d="M84.995 18.69c-23.35 0-28.116-4.89-39.63-16.705L43.72.298c-.004-.004-.012-.006-.018-.012-.004-.004-.006-.011-.012-.017-.044-.041-.102-.061-.153-.094-.056-.036-.106-.08-.166-.102-.06-.026-.124-.03-.188-.042C43.121.02 43.06 0 42.997 0c-.064 0-.126.02-.188.031-.064.012-.126.016-.186.04-.062.023-.112.068-.168.104-.05.033-.107.05-.15.092-.005.004-.007.012-.013.017-.006.004-.012.006-.018.012l-1.643 1.685c-11.514 11.815-16.28 16.707-39.63 16.707a.991.991 0 0 0-1.001.98c0 39.536 18.316 55.774 37.706 72.964a838.176 838.176 0 0 1 4.614 4.11c.056.048.125.078.189.113.038.023.072.053.114.069a1 1 0 0 0 .376.076c.128 0 .254-.027.376-.076.042-.016.076-.046.114-.07.064-.034.133-.062.189-.113 1.54-1.385 3.082-2.75 4.612-4.109C67.682 75.441 86 59.204 86 19.669a.994.994 0 0 0-1.005-.979zm-38.05 72.49c-1.31 1.164-2.629 2.335-3.946 3.515a873.94 873.94 0 0 0-3.947-3.514C20.159 74.432 2.318 58.594 2.018 20.636c23.31-.157 28.648-5.584 40.064-17.298L43 2.397l.919.941C55.332 15.05 60.672 20.477 83.982 20.634c-.302 37.96-18.147 53.8-37.038 70.547z" fill="url(#b)" transform="translate(32 27)"/></g></g></svg>