<svg width="150" height="150" xmlns="http://www.w3.org/2000/svg"><defs><linearGradient x1="50%" y1="0%" x2="50%" y2="100%" id="a"><stop stop-color="#15C1F6" offset="0%"/><stop stop-color="#098DEA" offset="100%"/></linearGradient></defs><g fill="none" fill-rule="evenodd"><circle fill="#1694EB" opacity=".043" cx="75" cy="75" r="75"/><path d="M36.495 61.84c.167.416.811.17.64-.255-.169-.425-.334-.85-.494-1.278-.158-.423-.805-.185-.646.24a60 60 0 0 0 .5 1.293zm20.708-23.607c-.18.421.458.683.635.27.18-.42.364-.837.554-1.253.187-.413-.44-.698-.629-.285-.191.42-.378.843-.56 1.268zm54.818 18.813a.345.345 0 0 0-.25.642c.427.167.851.336 1.274.51.417.172.687-.462.263-.636a69.257 69.257 0 0 0-1.287-.516zM75.486 35.35c10.965 0 20.892 4.437 28.078 11.611a39.638 39.638 0 0 1 9.572 15.403c.153-.365.301-.734.446-1.102.166-.425.805-.171.643.25-.169.43-.343.857-.521 1.283a.347.347 0 0 1-.358.211 39.563 39.563 0 0 1 1.848 11.988c0 3.856-.552 7.584-1.58 11.109l.171.392a.345.345 0 0 1-.432.463 39.624 39.624 0 0 1-9.79 16.069 39.841 39.841 0 0 1-8.983 6.735l-.132.337a.345.345 0 0 1-.612.06 39.588 39.588 0 0 1-18.35 4.48 39.8 39.8 0 0 1-10.885-1.509c-.288.132-.577.26-.867.389-.423.185-.688-.451-.279-.63l.136-.06a39.709 39.709 0 0 1-16.184-9.802 39.81 39.81 0 0 1-6.226-8.055.34.34 0 0 1-.29.029c-.436-.154-.87-.313-1.303-.476-.426-.159-.182-.803.242-.645.306.115.613.228.92.34a39.414 39.414 0 0 1-4.973-19.226c0-10.234 3.884-19.563 10.26-26.596a39.638 39.638 0 0 1 29.45-13.048zm15.058 69.413c.855-.852 1.4-1.962 1.525-2.98.22-1.793.775-2.47 1.407-2.909.232-.161 1.12-.546 1.516-1.247.33-.587.54-1.599.54-3.489 0-3.7 1.317-5.592 3.674-8.196l.023-.25-.315.371c-.29.34-.824-.09-.527-.445.297-.349.592-.7.885-1.052.248-.3.735-.013.585.35a.341.341 0 0 1 .1.167c.386-.466.744-.976 1.074-1.483.115-.176.46-.677.082-.203-.28.35-.824-.069-.539-.43l.483-.608c-.324-.04-.62-.1-.868-.147l-.06.919c-.032.45-.717.41-.688-.046l.065-1.01c-1.456-.358-2.73-1.143-3.74-2.245-1.052-1.15-1.775-3.635-1.756-5.237.026-2.118 1.325-2.557 2.798-1.108.527.519 1.15 1.307 1.875 2.43.59.914 1.52 1.682 2.547 2.057 1.044.38 2.719.292 2.887-1.091.059-.481-.106-1.103-.592-1.906-1.508-2.486-2.069-4.032-2.034-4.883.029-.718.34-1.093.848-1.192l-.631-.81c-.279-.352.257-.787.541-.427.285.363.568.727.849 1.093a.348.348 0 0 1 .07.184c.52.127 1.147.45 1.798.903 2.054 1.431 4.26 4.132 4.379 6.271.082 1.21.202 2.059.48 2.713.088.267.478 1.014.98.948.228-.03.48-.229.736-.72.735-1.407.736-3.09 1.55-4.354.257-.4.569-.706.936-.848a38.427 38.427 0 0 0-1.296-8.854 68.85 68.85 0 0 1-.45.954c-.195.404-.817.12-.623-.297.198-.412.393-.825.583-1.241a.345.345 0 0 1 .27-.2 38.303 38.303 0 0 0-5.252-11.037c-.802-1.162-1.465-1.93-2.987-2.28-1.572-.362-3.502-.085-5.116.093-.426.048-.859.095-1.296.14.08.355.16.71.236 1.067.093.441-.576.593-.674.146a87.19 87.19 0 0 0-.254-1.147c-3.085.273-6.31.253-8.841-1.576-2.365-1.709-2.843-1.346-3.614-.762-1.09.826-1.893 1.202-3.292 1.331-1.94.18-2.79.908-1.57 2.673.95 1.376.473 2.961-1.112 3.457-1.629.51-2.876-.603-2.876-2.285 0-2.493-1.883-1.487-2.917-.384-.697.744-1.125 1.662-.62 2.132 1.072 1.002 2.423 1.735 2.423 3.43 0 1.867-2.233 1.553-3.536 1.877-.648.16-1.125.535-.84 1.684.778 2.975 1.406 3.11-.35 6.044-1.53 2.56-3.163 4.768-3.627 7.83-.222 1.463-.094 2.95.619 4.38 2.318 4.651 5.621 4.305 8.292 4.025 2.21-.231 4.057-.425 4.98 1.663.778 1.76-1.064 2.386 1.122 5.852 1.193 1.89 1 3.709.812 5.464-.087.82-.36 2.264.088 3.26a.346.346 0 0 1 .23.613c1.391 3.495 4.498 6.352 8.005 2.858zm23.498-29.42c-.736.456-.746 2.73-1.387 4.033-.355.723-.94 1.545-1.812 1.632-.547.055-1.078-.21-1.49-.708-.46-.557-.82-1.473-.975-2.646-.241-.396-.476-.789-.745-1.167-.188-.296.268-.705.545-.44.137.13.157.33.108-.123-.055-.512-.29-1.083-.639-1.663-.153.243-.308.485-.465.727-.196.3-.663.14-.634-.214a105.072 105.072 0 0 0-.773-1.149c-.256-.37.31-.765.569-.389.194.285.387.571.58.858l.006.01c.1-.157.2-.314.298-.471a13.125 13.125 0 0 0-2.254-2.35l.004.005.177.247c.261.368-.293.772-.56.402a131.89 131.89 0 0 0-.807-1.113.342.342 0 0 1-.014-.388c-.389-.227-.732-.371-.993-.407-.086-.011-.141.02-.145.108-.026.649.49 1.974 1.868 4.246.52.858.753 1.596.772 2.23l.19-.28c.256-.371.826.006.572.386-.26.382-.52.762-.783 1.14a.345.345 0 0 1-.34.144 2.924 2.924 0 0 1-1.083 1.004.345.345 0 0 1 .218.542c-.271.373-.545.744-.82 1.113-.269.36-.829-.043-.554-.412.27-.36.537-.723.802-1.087-.784.28-1.72.22-2.64-.115a5.718 5.718 0 0 1-.49-.206l-.031.84c-.019.446-.704.433-.69-.027.016-.396.03-.793.041-1.19a6.476 6.476 0 0 1-1.951-1.932c-.677-1.047-1.22-1.753-1.649-2.19-.698-.71-.9-.815-.912.264-.017 1.381.583 3.498 1.455 4.451a6.336 6.336 0 0 0 3.08 1.881c.342.09.685.145.997.194.586.094 1.085.173 1.453.437.76.546.733 1.467-.82 3.623-.412.573-.896 1.107-1.398 1.662-1.528 1.687-3.241 3.58-3.241 7.283 0 2.017-.246 3.205-.617 3.961-.37.753-.783 1.036-1.489 1.44-.58.334-1.155.664-1.366 2.384-.154 1.255-.818 2.616-1.857 3.652-3.937 3.922-8.006 1.253-9.751-2.936l-.154.12c-.364.277-.778-.266-.423-.545l.312-.242a5.443 5.443 0 0 1-.376-1.729l-.495.021c-.45.019-.488-.67-.03-.688l.514-.022c.013-.543.071-1.09.13-1.643.166-1.562.339-3.18-.641-4.733-2.305-3.653-.674-4.801-1.204-6-.585-1.324-2.053-1.17-3.811-.986-3.025.317-6.765.71-9.438-4.653-.83-1.665-.981-3.382-.727-5.061.494-3.26 2.155-5.528 3.78-8.247 1.556-2.604.93-2.328.22-5.184-.514-2.065.422-2.758 1.68-3.07.576-.143 2.66-.206 2.66-.765 0-1.111-1.305-1.894-2.055-2.594-1.078-1.007-.532-2.574.567-3.747 1.806-1.929 4.903-2.55 4.903 1.164 0 .874.485 1.472 1.383 1.19.85-.265 1.001-1.001.51-1.712-1.735-2.509-.426-4.2 2.41-4.462a5.27 5.27 0 0 0 1.11-.216l-.145-.113c-.352-.278.058-.824.424-.544l.447.352c.347-.186.62-.393.868-.581 1.19-.902 1.928-1.462 4.98.743 2.724 1.968 6.6 1.54 10.029 1.16 1.805-.2 3.838-.486 5.62-.042a38.745 38.745 0 0 0-9.445-7.904l.033.093.073.208c.148.425-.494.661-.65.23a72.086 72.086 0 0 0-.386-1.067 38.433 38.433 0 0 0-18.79-4.872c-3.276 0-6.458.408-9.495 1.176l.358.17c.404.196.116.82-.3.622a75.935 75.935 0 0 0-1.094-.514 38.404 38.404 0 0 0-10.5 4.772c1.984-.583 4.137-.74 6.511-.372 2.041.316 4.083-.135 5.802-.515 2.604-.575 4.568-1.009 5.267 1.182.328 1.028.15 2.316-.302 3.276-.645 1.37-1.824 2.212-3.297 2.486-1.422.264-2.569 1.107-3.424 2.25-.79 1.056-1.873 1.802-2.941 2.147-1.254.404-2.715.308-3.555-.826-.805-1.086-.644-2.404-.354-3.628.267-1.126.4-1.158-.697-.893-3.48.841-.066 2.648-1.841 4.476-2.282 2.35.229 3.698-1.592 6.25-.934 1.309-1.94 1.671-3.089 2.085-2.976 1.072-4.858 3.052-5.905 6.006-.524 1.48-1.033 2.915-3.098 3.698-1.255.476-1.269 1.09-.996 1.805.358.943.872 1.733 1.037 2.767.608 3.794 1.177 2.62 3.741 3.565 3.912 1.443 1.738 3.475 5.825 5.22 1.296.553 2.329 1.161 3.095 1.81 3.437 2.904 1.048 5.762-1.292 8.437-.87.995-1.781 2.037-2.454 3.167l.138.03c.45.1.29.77-.148.674l-.334-.074c-1.13 2.28-1.146 4.926 2.06 8.24a38.427 38.427 0 0 0 22.875 7.503 38.435 38.435 0 0 0 18.527-4.727 38.722 38.722 0 0 0 13.981-13.059l-.281.09c-.43.133-.646-.515-.21-.657a76.44 76.44 0 0 0 1.056-.342 38.259 38.259 0 0 0 5.483-19.453zM79.116 61.956l-.029.012h-.002c-.221.099-.851.378-1.418.871-.327.284-.53.499-.506.601.038.162.383.36 1.174.627.757.255 1.47.553 2.138 1.025.679.48 1.292 1.125 1.828 2.061.633 1.106 1.667.928 2.84.727 1.29-.222 2.713-.467 4.19.445 1.09.674 2.152.608 2.845.208.29-.167.51-.389.627-.63a.817.817 0 0 0 .045-.65c-.175-.476-.804-.943-2.085-1.221-.99-.215-2.034-.49-3.041-.878-1.02-.392-1.993-.899-2.817-1.57-1.179-.962-2.237-1.531-3.185-1.785-.984-.262-1.848-.18-2.604.157zm-.495-1.032l.028-.013c.992-.443 2.111-.555 3.367-.22 1.098.294 2.3.934 3.612 2.004.723.59 1.59 1.039 2.507 1.392.93.358 1.92.618 2.87.824 1.726.374 2.622 1.133 2.921 1.948.193.524.144 1.06-.09 1.541-.217.448-.596.843-1.085 1.124-1.01.583-2.52.702-4.022-.225-1.105-.683-2.306-.476-3.396-.289-1.593.274-2.997.515-4.03-1.287-.448-.784-.947-1.313-1.49-1.698-.553-.391-1.173-.648-1.842-.873-1.223-.411-1.796-.892-1.929-1.451-.146-.619.226-1.167.87-1.728.682-.593 1.44-.93 1.709-1.049zm-29.402 42.252c-.961-2.175-.678-4.056.155-5.75a.345.345 0 0 1 .313-.585c.754-1.306 1.801-2.504 2.8-3.645 1.838-2.101 4.201-4.453 1.413-6.81-.68-.575-1.616-1.123-2.804-1.63-4.414-1.885-2.516-3.997-5.77-5.197-3.037-1.12-3.736.17-4.478-4.463-.14-.877-.663-1.71-.98-2.542-.504-1.328-.507-2.457 1.667-3.281 1.564-.593 1.985-1.782 2.42-3.007 1.171-3.307 3.273-5.503 6.601-6.702.966-.347 1.813-.653 2.54-1.672 1.482-2.075-1.057-3.54 1.705-6.384 1.004-1.034-2.29-3.658 2.394-4.79 2.205-.534 2.514.457 2.085 2.265-.203.856-.415 1.917.155 2.686.527.71 1.527.662 2.284.418.854-.276 1.726-.881 2.37-1.742 1.031-1.378 2.432-2.374 4.14-2.69 1.103-.206 1.98-.814 2.465-1.845.33-.7.49-1.693.249-2.447-.381-1.194-1.906-.857-3.929-.41-1.815.4-3.97.877-6.224.528-2.952-.456-5.533-.038-7.858 1.038-2.215 1.025-4.208 2.65-6.076 4.688-6.171 6.825-9.93 15.867-9.93 25.786a38.27 38.27 0 0 0 5.728 20.197.344.344 0 0 1 .418-.18c.436.14.872.277 1.31.41.43.13.24.791-.2.66a84.1 84.1 0 0 1-1.205-.377 38.679 38.679 0 0 0 6.242 7.473zM38.31 58.04c.423-.173.16-.806-.26-.637-.429.174-.855.352-1.28.535-.421.184-.138.808.274.632.42-.181.842-.357 1.266-.53zm-3.138 1.38c.413-.2.107-.815-.299-.622-.418.2-.833.403-1.245.613-.408.208-.09.817.314.614.407-.208.817-.41 1.23-.606zm-3.04 1.576c.4-.228.05-.82-.34-.6a43.32 43.32 0 0 0-1.2.705c-.383.235-.03.827.36.587.39-.237.783-.468 1.18-.692zm-2.901 1.806c.377-.259-.02-.822-.392-.567-.383.263-.76.534-1.133.812-.365.28.055.818.416.55.364-.273.734-.538 1.109-.795zm-2.702 2.076c.344-.3-.115-.815-.453-.519-.352.307-.696.618-1.032.943-.32.315.149.811.48.494.327-.315.662-.62 1.005-.918zm-2.402 2.397c.292-.343-.229-.795-.525-.447a20.54 20.54 0 0 0-.875 1.099c-.264.366.288.774.558.406.267-.363.55-.715.842-1.058zm-1.937 2.759c.222-.4-.387-.726-.604-.333-.23.418-.433.832-.623 1.269-.18.42.458.683.636.269.18-.415.373-.809.591-1.205zm-1.228 3.108c.103-.436-.561-.606-.67-.16-.111.468-.192.923-.248 1.4-.048.454.634.523.686.073.053-.447.129-.874.232-1.313zm-.272 3.31c-.043-.469-.72-.36-.689.023.036.492.106.937.2 1.42.096.434.76.356.669-.133-.084-.433-.145-.87-.18-1.31zm.749 3.245c-.172-.417-.81-.166-.64.258.175.44.365.864.582 1.286.208.398.824.086.611-.32a13.625 13.625 0 0 1-.553-1.224zm1.6 2.953c-.266-.375-.821.03-.564.397a18 18 0 0 0 .849 1.12c.285.344.825-.086.531-.44-.287-.35-.554-.707-.816-1.077zm2.184 2.583c-.33-.324-.803.173-.487.489.33.33.668.649 1.016.96.345.302.793-.214.459-.515a24.431 24.431 0 0 1-.988-.934zm2.56 2.239c-.366-.28-.775.274-.42.546.368.285.743.558 1.123.828.37.254.77-.3.395-.565-.37-.264-.737-.53-1.097-.81zm2.807 1.942c-.393-.241-.745.349-.365.585.394.246.791.484 1.193.717.398.227.734-.37.344-.597a41.406 41.406 0 0 1-1.172-.705zm2.972 1.692c-.408-.208-.716.404-.316.612.41.214.824.42 1.24.624.11.053.224.043.315-.007a.346.346 0 0 0 .624-.076c.137-.435.28-.869.428-1.3.144-.426-.501-.656-.652-.224-.118.343-.233.687-.344 1.032a.358.358 0 0 0-.07-.045c-.41-.2-.818-.405-1.225-.616zm3.09 1.48c-.42-.184-.687.45-.275.63.423.186.848.368 1.275.545.426.174.678-.467.263-.637a64.28 64.28 0 0 1-1.262-.539zm9.71 3.407c-.44-.122-.617.543-.183.664.446.122.891.242 1.339.358.442.113.61-.55.172-.667a99.09 99.09 0 0 1-1.327-.355zm6.69 1.574c-.448-.084-.576.588-.133.676.453.09.907.175 1.36.26.45.079.57-.594.124-.679-.451-.083-.901-.168-1.35-.257zm3.384.61c-.445-.07-.562.604-.11.68.455.074.911.144 1.367.213.444.065.557-.61.102-.681-.453-.069-.906-.139-1.359-.213zm3.402.498c-.454-.056-.535.623-.088.684.458.059.916.116 1.374.17.453.053.528-.628.08-.684-.456-.053-.91-.11-1.366-.17zm3.418.394c-.45-.041-.524.639-.069.686.46.046.919.089 1.378.13.458.038.508-.645.06-.686-.456-.041-.913-.084-1.37-.13zm3.427.293c-.46-.028-.495.656-.048.688.46.032.92.062 1.38.09.461.024.49-.66.041-.688-.458-.028-.915-.058-1.373-.09zm3.435.196c-.453-.02-.483.67-.029.688.461.019.922.036 1.383.051.459.014.47-.674.021-.688a154.32 154.32 0 0 1-1.375-.051zm3.439.099c-.458-.005-.462.68-.01.689.462.007.923.011 1.384.013.457 0 .454-.684.002-.689-.459-.002-.917-.006-1.376-.013zm3.44.006c-.454.009-.443.693.01.689.461-.006.922-.015 1.384-.025.45-.013.44-.698-.018-.688-.458.01-.917.018-1.376.024zm6.875-.272c-.323.024-.424.426-.197.61a.36.36 0 0 0 .07.043c-.418.345.077.83.407.557l.71-.59.439-.034c.426-.035.412-.659-.005-.687a.345.345 0 0 0-.527-.1l-.18.15-.717.051zm3.429-.28c-.448.046-.39.727.068.685.46-.045.918-.092 1.377-.141.455-.053.372-.732-.076-.685-.456.05-.913.096-1.37.14zm3.418-.382c-.451.06-.36.739.088.683.458-.058.915-.12 1.372-.183.447-.065.357-.743-.096-.682-.454.063-.908.124-1.364.182zm6.792-1.082c-.451.09-.31.76.131.677.453-.089.906-.179 1.358-.273.45-.094.298-.766-.141-.674-.449.093-.898.183-1.348.27zm3.362-.71c-.447.104-.28.772.157.67.45-.103.899-.21 1.347-.32.443-.113.272-.776-.166-.669-.445.11-.89.215-1.338.319zm3.335-.834c-.442.122-.256.78.18.664.446-.121.892-.245 1.336-.373.43-.125.248-.79-.193-.661-.44.127-.882.25-1.323.37zm6.543-2.078c-.43.16-.179.802.242.645a61.5 61.5 0 0 0 1.295-.494c.42-.167.17-.81-.254-.64a66.3 66.3 0 0 1-1.283.489zm3.185-1.273c-.421.184-.134.81.277.631.397-.172.792-.348 1.186-.528l.1.342c.134.44.788.237.663-.194a45.816 45.816 0 0 0-.407-1.327c-.14-.428-.798-.22-.656.213l.096.301-.006.003c-.416.191-.833.377-1.253.559zm3.104-1.456c-.408.209-.089.817.314.614.412-.212.821-.427 1.229-.649.4-.22.064-.818-.332-.604-.402.219-.805.43-1.211.64zm2.988-1.664c-.388.238-.027.82.361.587.397-.241.788-.49 1.175-.745.381-.254-.003-.822-.38-.574-.382.25-.766.495-1.156.732zm2.83-1.91c-.366.28.058.819.417.55.372-.28.735-.566 1.095-.861.355-.293-.093-.817-.439-.532-.353.29-.709.57-1.073.844zm2.596-2.199c-.32.315.153.812.482.493.336-.325.66-.658.976-1.002.312-.344-.213-.793-.51-.464a22.32 22.32 0 0 1-.948.973zm2.238-2.537c-.262.368.293.772.56.402.278-.382.535-.763.784-1.164.234-.387-.35-.748-.588-.36-.24.387-.488.754-.756 1.122zm1.684-2.908c-.17.415.456.689.637.266.187-.438.343-.873.484-1.327.13-.432-.529-.636-.66-.2a12.94 12.94 0 0 1-.46 1.261zm.866-3.216c-.042.459.64.513.687.069.05-.474.076-.94.07-1.415-.01-.46-.694-.438-.69.01.006.448-.019.891-.067 1.336zm-.146-3.325c.095.45.764.302.676-.136a12.689 12.689 0 0 0-.364-1.373c-.143-.426-.8-.214-.654.22.14.427.251.849.342 1.29zm-1.123-3.144c.213.405.818.084.613-.317-.22-.42-.45-.82-.704-1.22-.247-.38-.824-.012-.581.37.242.384.463.765.672 1.167zm-1.865-2.803c.287.346.824-.086.532-.439a22.6 22.6 0 0 0-.926-1.052c-.316-.33-.809.142-.5.473.31.332.604.668.894 1.018zm-2.356-2.44c.346.304.792-.213.46-.513-.347-.31-.704-.612-1.065-.904-.36-.288-.78.254-.433.537.353.284.7.578 1.038.88zm-2.672-2.112a.345.345 0 0 0 .397-.564 36.92 36.92 0 0 0-1.154-.78.345.345 0 0 0-.374.579c.382.246.76.503 1.13.765zm-2.881-1.837a.345.345 0 0 0 .345-.596 45.366 45.366 0 0 0-1.214-.677.345.345 0 0 0-.327.606c.402.217.8.439 1.196.667zm-3.025-1.602c.411.198.706-.42.3-.62-.379-.184-.76-.363-1.143-.539l.063-.193c.136-.436-.517-.638-.658-.208-.14.434-.285.866-.437 1.296-.147.423.5.66.652.227.054-.154.108-.31.16-.464.357.163.71.33 1.063.501zM88.753 35.54c-.427.171-.167.805.253.642.426-.167.853-.33 1.282-.487.431-.16.185-.8-.238-.647a59.67 59.67 0 0 0-1.297.493zM37.068 87.759c.181-.44-.487-.658-.648-.267-.171.427-.338.862-.505 1.292a.345.345 0 0 0 .644.248l.506-1.267.003-.006zm-2.217 6.472c.117-.439-.55-.614-.667-.177-.119.447-.231.897-.336 1.348-.1.45.57.59.672.154.103-.443.214-.885.331-1.325zm-.74 3.332c.075-.454-.603-.558-.68-.118-.08.458-.152.915-.214 1.375a.345.345 0 0 0 .684.09c.061-.45.13-.899.21-1.347zm-.412 3.38c.028-.457-.661-.49-.69-.042-.028.465-.046.928-.052 1.394-.005.458.685.455.69.007.006-.454.023-.906.052-1.36zm.016 3.392c-.038-.458-.725-.39-.688.056.039.466.093.93.161 1.393.07.441.75.351.683-.105a18.283 18.283 0 0 1-.156-1.344zm.579 3.323c-.129-.443-.785-.243-.664.187.13.455.274.897.444 1.338.167.428.804.17.643-.248-.161-.421-.3-.843-.423-1.277zm1.29 3.09c-.23-.395-.822-.04-.595.348.243.413.497.798.783 1.182.273.357.825-.046.55-.415a12.139 12.139 0 0 1-.737-1.115zm2.078 2.607c-.336-.312-.798.2-.469.505l.014.013c.348.317.702.612 1.083.89.378.267.764-.299.403-.56a10.89 10.89 0 0 1-1.03-.848zm2.75 1.887c-.412-.2-.707.42-.302.619.425.21.854.39 1.298.558.434.157.66-.489.24-.646-.423-.16-.83-.331-1.236-.531zm3.173 1.098c-.447-.094-.586.576-.144.674.462.1.917.18 1.385.248.456.057.537-.623.09-.683a18.81 18.81 0 0 1-1.331-.239zm3.358.413c-.459-.015-.47.674-.021.688.467.016.932.018 1.4.008.457-.014.433-.698-.019-.689-.454.01-.906.008-1.36-.007zm3.4-.121c-.447.046-.388.728.07.685a33.77 33.77 0 0 0 1.385-.171c.455-.071.343-.746-.102-.682-.45.066-.9.12-1.353.168zm3.37-.526c-.442.098-.302.768.144.674.454-.095.907-.196 1.357-.307.446-.114.27-.775-.166-.669-.443.11-.888.209-1.335.302zm3.316-.838c-.44.133-.229.788.2.66.444-.132.885-.27 1.326-.414a.344.344 0 0 0 .234-.369c.15.295.55.265.646-.039a.342.342 0 0 0-.023-.256c-.208-.407-.41-.816-.607-1.227-.196-.405-.82-.116-.622.298.163.34.329.678.499 1.015a.345.345 0 0 0-.345-.076c-.435.142-.87.278-1.308.408zm3.25-1.087c-.422.157-.188.805.242.645.433-.162.864-.329 1.294-.5.426-.17.161-.806-.257-.64-.425.17-.851.335-1.28.495zm6.28-2.753c-.4.204-.1.818.311.615.413-.207.824-.418 1.233-.633.398-.212.084-.821-.322-.61-.405.213-.812.423-1.222.628zm3.033-1.61c-.4.229-.056.819.338.602.403-.227.804-.455 1.203-.687.397-.231.04-.821-.348-.595-.396.23-.793.456-1.193.68zm2.962-1.738c-.39.243-.02.82.362.587.393-.243.785-.487 1.175-.735.386-.249.007-.82-.372-.58-.386.246-.775.488-1.165.728zm2.892-1.853c-.38.256.01.821.385.572.383-.257.765-.515 1.145-.777.377-.259-.02-.822-.392-.567-.378.26-.757.517-1.138.772zm2.824-1.958c-.365.265.033.825.404.558.374-.27.747-.542 1.118-.816.369-.274-.052-.82-.412-.553-.368.273-.739.543-1.11.81zm8.062-6.422c-.344.3.116.814.456.517.347-.304.691-.61 1.035-.918.341-.307-.13-.811-.462-.511-.342.306-.685.61-1.03.912zm2.551-2.303c-.334.31.14.81.472.503.337-.314.673-.63 1.007-.948.332-.317-.153-.807-.477-.497-.332.316-.666.63-1.002.942zm2.483-2.377c-.318.312.157.813.486.489.328-.324.654-.65.98-.976.315-.32-.17-.81-.492-.484-.323.325-.648.649-.974.97zm2.413-2.448c-.316.33.188.8.5.475.319-.333.635-.668.951-1.004.313-.336-.2-.797-.505-.47-.314.335-.629.668-.946 1zm2.342-2.516c-.307.34.211.794.513.46.31-.342.617-.685.921-1.031.304-.345-.223-.79-.518-.454-.303.343-.609.685-.916 1.025zm12.289-16.504c-.232.397.366.735.595.349.234-.397.466-.795.696-1.195.223-.39-.373-.738-.6-.341-.228.397-.458.793-.691 1.187zm1.69-2.987c-.212.396.39.728.608.326.219-.407.434-.815.646-1.225.208-.406-.404-.715-.614-.315-.21.407-.423.81-.64 1.214zm5.224-12.639c-.119.444.544.615.665.182.122-.447.238-.894.347-1.345.102-.436-.562-.606-.671-.16-.108.443-.222.883-.341 1.323zm.768-3.325c-.078.442.599.572.68.121.083-.456.16-.912.225-1.372.06-.445-.617-.549-.683-.095-.065.45-.14.898-.222 1.346zm.447-3.377c-.032.446.655.507.688.049.035-.464.06-.929.07-1.394.005-.46-.68-.46-.69-.013-.01.453-.034.907-.068 1.358zm.03-3.392c.033.457.72.398.688-.05a21.792 21.792 0 0 0-.138-1.393c-.065-.447-.745-.358-.684.094.06.45.103.897.134 1.35zm-.519-3.335c.119.443.783.256.667-.177a15.653 15.653 0 0 0-.414-1.347c-.158-.423-.803-.191-.648.237.152.423.282.851.395 1.287zm-1.216-3.122c.228.399.82.057.602-.337-.23-.417-.475-.809-.748-1.2-.266-.374-.822.034-.563.399.26.37.49.742.709 1.138zm-2.006-2.666c.318.312.812-.169.483-.492a12.666 12.666 0 0 0-1.07-.934c-.366-.28-.774.276-.42.547.357.278.684.563 1.007.879zm-2.696-1.963c.408.213.717-.403.32-.61a14.153 14.153 0 0 0-1.286-.592c-.419-.163-.68.47-.253.64.42.17.818.352 1.219.562zm-3.145-1.17c.448.104.597-.564.16-.671a19.16 19.16 0 0 0-1.379-.275c-.446-.07-.558.61-.107.681.45.072.884.159 1.326.264zm-3.348-.472c.457.023.484-.665.035-.688a22.434 22.434 0 0 0-1.402-.028c-.455.01-.444.694.01.689.433-.017.922.005 1.357.027zm-3.398.076c.46-.042.383-.727-.063-.686-.463.042-.926.093-1.387.157-.448.065-.357.743.095.682.45-.062.903-.112 1.355-.153zm-3.375.492c.448-.09.305-.764-.137-.676-.455.091-.909.189-1.36.296a.344.344 0 1 0 .16.67c.444-.105.89-.201 1.337-.29zm-3.323.812a.344.344 0 1 0-.192-.662 47.64 47.64 0 0 0-1.33.404.353.353 0 0 0-.11.059c-.3-.179-.642.151-.483.455.21.405.414.812.614 1.223.205.412.816.102.621-.301a72.86 72.86 0 0 0-.393-.792 47.14 47.14 0 0 1 1.273-.386zm-33.156 82.025a.346.346 0 0 0-.6.34c.229.403.465.802.707 1.197a.346.346 0 0 0 .588-.36c-.238-.389-.47-.781-.695-1.177zm1.812 2.895a.346.346 0 0 0-.569.391c.262.382.536.76.814 1.13a.345.345 0 0 0 .552-.414 30.672 30.672 0 0 1-.797-1.107zm2.08 2.698a.345.345 0 0 0-.522.451c.305.352.62.697.942 1.032a.345.345 0 0 0 .497-.479 25.29 25.29 0 0 1-.918-1.004zm2.392 2.406c-.35-.297-.789.23-.449.523.355.305.718.601 1.093.88.368.273.773-.285.411-.553a20.957 20.957 0 0 1-1.055-.85zm2.748 1.964c-.398-.227-.732.376-.342.599.413.234.825.445 1.257.642.417.19.694-.442.284-.627a15.95 15.95 0 0 1-1.2-.614zm3.09 1.297c-.443-.118-.612.55-.178.665.465.124.914.22 1.389.293.445.065.553-.616.1-.682a12.7 12.7 0 0 1-1.31-.276zm3.31.396c-.458.02-.42.707.029.689.479-.017.937-.06 1.411-.128.444-.07.351-.748-.104-.681-.449.065-.882.105-1.336.12zm3.289-.591c-.434.146-.21.793.218.653.45-.153.886-.32 1.32-.518.415-.193.121-.812-.29-.625-.41.186-.822.345-1.248.49zm3.026-1.452c-.387.245-.01.822.37.582a17.32 17.32 0 0 0 1.159-.799c.357-.273-.047-.823-.416-.55-.36.27-.731.528-1.113.767zm2.675-2.069c-.338.314.141.81.468.506.343-.319.677-.643 1.001-.98.316-.335-.19-.799-.5-.475-.317.326-.636.64-.97.95zm2.326-2.475c-.283.348.241.79.534.436.296-.358.585-.724.863-1.096.273-.367-.286-.77-.554-.41-.275.362-.553.72-.843 1.07zm2.023-2.744c-.251.383.326.753.576.379.256-.388.503-.777.747-1.173.234-.387-.35-.747-.589-.36-.24.39-.483.772-.734 1.154zm1.763-2.927a.345.345 0 1 0 .605.33c.219-.4.433-.803.641-1.21.394.01.487-.55.114-.672a55.716 55.716 0 0 1-1.299-.44c-.431-.15-.655.495-.229.649.248.088.496.173.745.257-.187.365-.38.726-.577 1.086zm1.539-3.055c-.19.415.436.696.627.287.194-.42.383-.841.567-1.265.18-.42-.452-.686-.634-.273-.182.42-.369.836-.56 1.251zm2.519-6.37c-.143.437.511.641.654.217.147-.437.29-.876.43-1.316.136-.437-.524-.633-.66-.205-.137.436-.279.87-.424 1.304zm1.018-3.275c-.124.442.539.62.664.189.126-.444.25-.888.37-1.334.119-.443-.551-.61-.666-.177a92.24 92.24 0 0 1-.368 1.322zm.878-3.317c-.105.449.564.596.67.162.11-.448.214-.897.317-1.347.1-.45-.577-.587-.674-.15a98.43 98.43 0 0 1-.313 1.335zm.746-3.349c-.09.45.589.576.677.136.091-.452.18-.904.266-1.357.083-.438-.593-.58-.679-.127-.085.45-.173.9-.264 1.348zm.624-3.375c-.07.447.606.56.681.112.076-.455.149-.91.218-1.365.067-.455-.612-.546-.682-.103-.07.452-.142.904-.217 1.356zm.508-3.395c-.057.455.624.533.685.089.06-.457.118-.914.173-1.372.05-.445-.629-.536-.686-.08-.054.455-.112.909-.172 1.363zm.96-13.695c-.005.457.685.456.69.006.004-.46.007-.921.006-1.382-.005-.46-.69-.445-.69.002 0 .458-.002.916-.006 1.374zm-.014-3.435c.01.46.699.434.69-.014-.01-.46-.02-.92-.034-1.381-.014-.457-.704-.427-.69.022.014.458.025.916.034 1.373zm-.114-3.432c.023.455.707.417.689-.034-.022-.46-.047-.92-.075-1.38-.028-.452-.716-.409-.688.042.027.457.052.914.074 1.372zm-.216-3.428c.03.366.54.437.668.092l.38.463c.287.346.823-.081.534-.436-.152-.187-.841-1.065-.974-1.143l-.036-.407c-.043-.454-.725-.389-.688.062.041.457.08.913.116 1.37zm-.32-3.418c.051.45.732.376.685-.076-.05-.458-.103-.916-.159-1.373-.057-.456-.74-.36-.685.084.056.455.108.91.158 1.365zm-.429-3.407c.065.442.745.359.683-.097a110.14 110.14 0 0 0-.204-1.368c-.07-.452-.75-.338-.681.107.07.452.137.905.202 1.358zm-.54-3.39c.08.452.757.32.68-.12-.082-.455-.165-.908-.252-1.36-.09-.452-.76-.311-.677.13.086.45.168.9.249 1.35zm-1.442-6.71c.114.445.78.264.669-.17a95.527 95.527 0 0 0-.353-1.338c-.123-.44-.782-.255-.666.182.12.441.236.883.35 1.326zm-.916-3.305c.13.432.792.237.66-.199a69.5 69.5 0 0 0-.41-1.322c-.142-.436-.792-.218-.656.21.139.437.273.873.406 1.31zm-2.281-6.462c.18.423.808.151.637-.264a64.09 64.09 0 0 0-.543-1.275c-.18-.409-.816-.144-.631.278.184.419.362.839.537 1.261zm-2.998-6.149c.232.398.822.04.596-.346-.232-.4-.47-.799-.714-1.192-.247-.387-.823-.015-.585.366.241.387.475.778.703 1.172zm-1.833-2.881c.262.369.825-.026.564-.397-.265-.38-.541-.757-.824-1.124-.282-.361-.82.065-.546.421.275.361.546.728.806 1.1zm-2.104-2.678c.301.333.819-.113.515-.459a25.56 25.56 0 0 0-.954-1.02.345.345 0 0 0-.489.485c.32.322.627.655.928.994zm-2.421-2.376c.355.293.784-.243.44-.53a21.012 21.012 0 0 0-1.107-.865c-.367-.26-.773.297-.4.562.367.267.719.541 1.067.833zm-2.776-1.917c.408.213.72-.395.325-.608a15.107 15.107 0 0 0-1.269-.617c-.426-.175-.68.46-.267.635.415.177.815.375 1.211.59zm-3.116-1.23c.444.103.598-.564.158-.671a13.052 13.052 0 0 0-1.392-.259c-.446-.055-.541.627-.086.684.45.06.879.138 1.32.245zm-3.323-.316c.458-.028.41-.71-.04-.687-.48.028-.938.082-1.412.163-.444.084-.326.757.123.678.446-.077.878-.127 1.329-.154zm-3.27.67c.42-.151.197-.803-.236-.646-.447.16-.876.341-1.305.544-.413.2-.104.815.3.62.409-.193.816-.364 1.241-.517zm-3 1.514c.383-.256-.005-.82-.38-.576-.394.26-.77.53-1.144.817-.362.285.066.817.422.544.36-.275.723-.536 1.101-.785zm-2.644 2.11c.333-.319-.153-.809-.476-.5-.339.321-.668.652-.987.992-.311.333.197.8.504.47.308-.33.631-.652.959-.963zm-2.3 2.502c.287-.357-.254-.78-.538-.432-.292.36-.576.73-.852 1.103-.264.361.282.778.557.408.27-.365.547-.726.833-1.079zm-2 2.762c.244-.376-.327-.759-.578-.375-.254.388-.5.782-.739 1.178-.23.383.354.75.592.355.235-.39.477-.776.725-1.158zm-1.742 2.94c.212-.397-.39-.73-.608-.327-.169.312-.334.626-.496.942l-.184-.059c-.429-.133-.644.52-.207.658.433.139.867.282 1.3.433.438.147.648-.505.226-.651a53.327 53.327 0 0 0-.472-.162c.144-.28.291-.558.44-.835zm34.334 80.907c-.442-.122-.617.543-.184.664.447.124.896.24 1.347.35.449.105.596-.564.162-.67a42.491 42.491 0 0 1-1.325-.344zm3.33.774c-.443-.08-.576.592-.125.677.457.085.915.16 1.375.228.453.066.544-.617.098-.682-.451-.066-.9-.14-1.348-.223zm3.381.447c-.448-.032-.508.654-.05.687.466.035.93.057 1.396.068.46.01.463-.68.015-.688a26.89 26.89 0 0 1-1.361-.067zm3.398.022c-.456.033-.402.715.048.687.467-.03.933-.08 1.397-.144.444-.065.36-.744-.097-.682-.447.06-.897.11-1.348.14zm3.335-.537c-.44.121-.256.78.18.665.459-.124.9-.264 1.346-.427.43-.16.18-.802-.242-.645-.426.156-.846.288-1.284.407zm3.111-1.25c-.399.228-.048.821.342.599a12.75 12.75 0 0 0 1.194-.767c.364-.27-.042-.822-.41-.554-.366.265-.733.498-1.126.722zm2.636-2.042c-.318.341.196.792.5.474.324-.337.639-.711.918-1.085.27-.37-.287-.77-.556-.408-.263.351-.558.703-.862 1.02zm1.92-2.724c-.204.41.413.709.617.307.212-.418.401-.854.571-1.29.162-.432-.484-.662-.644-.246-.164.42-.34.826-.545 1.229zm1.128-3.158c-.1.448.576.588.673.15.105-.456.193-.918.26-1.381.061-.454-.619-.54-.684-.095-.064.445-.149.888-.25 1.326zm.438-3.349c-.014.461.671.473.69.027.02-.466.024-.93.017-1.397-.01-.457-.694-.44-.69.012.007.452.003.907-.017 1.358zm-.098-3.393c.046.445.73.39.686-.068a33.583 33.583 0 0 0-.162-1.382c-.066-.45-.745-.352-.684.096.063.451.116.9.16 1.354zm-.506-3.37c.092.44.766.312.676-.138a40.128 40.128 0 0 0-.3-1.357c-.11-.445-.774-.277-.671.161.106.443.204.888.295 1.334zm-1.892-6.564c.16.43.8.184.647-.238-.16-.434-.323-.866-.494-1.296-.171-.428-.807-.16-.64.255.167.424.328.85.487 1.279zm-2.724-6.285c.208.41.817.095.618-.308a89.421 89.421 0 0 0-.628-1.234c-.213-.406-.82-.078-.611.32.21.406.417.813.621 1.222zM98.201 63.856c.296.338.82-.105.52-.452-.303-.348-.608-.693-.915-1.038-.301-.334-.818.117-.514.46.305.342.607.685.909 1.03zm-2.295-2.557c.31.333.813-.139.506-.469-.313-.338-.628-.674-.945-1.01-.318-.332-.808.149-.5.475.314.333.627.667.939 1.004zm-2.37-2.49c.324.328.806-.165.492-.483-.323-.329-.647-.656-.974-.982-.329-.324-.802.174-.486.489.324.324.647.649.968.976zm-2.441-2.42c.333.319.801-.188.478-.497-.333-.32-.666-.637-1.002-.953-.337-.314-.798.195-.472.502.334.315.665.63.996.948zm-2.51-2.348c.342.309.795-.212.463-.51-.342-.31-.684-.618-1.03-.924-.348-.306-.786.219-.457.516.343.304.684.61 1.024.918zm-2.58-2.273c.347.294.794-.23.449-.524-.35-.3-.703-.597-1.057-.892-.355-.293-.786.241-.442.529.352.294.702.59 1.05.887zm-5.36-4.301c.367.272.773-.281.414-.551-.37-.277-.74-.551-1.112-.824-.367-.265-.774.288-.406.557.37.27.737.543 1.104.818zm-2.782-2.018c.38.26.763-.305.395-.564a100.07 100.07 0 0 0-1.14-.786c-.379-.252-.759.315-.386.57.378.258.756.517 1.131.78zm-2.85-1.92c.39.248.75-.332.375-.577-.388-.25-.777-.5-1.168-.744-.389-.242-.747.342-.366.584.389.243.774.49 1.16.738zm-2.918-1.81c.389.226.746-.357.352-.593a96.198 96.198 0 0 0-1.197-.698c-.39-.223-.74.371-.341.598.397.228.792.458 1.186.692zm-2.988-1.694c.405.216.723-.392.327-.607a79.446 79.446 0 0 0-1.226-.646c-.398-.203-.725.399-.315.613.406.21.811.423 1.214.64zM62.92 37.06c.424.174.682-.459.266-.636-.428-.178-.856-.35-1.287-.52-.43-.165-.668.48-.25.642.426.166.85.339 1.271.514zm-6.472-2.24c.44.116.618-.545.18-.666-.45-.12-.898-.233-1.35-.34-.45-.1-.592.569-.155.67.444.106.884.218 1.325.335zm-3.334-.75c.453.075.562-.6.119-.679a36.58 36.58 0 0 0-1.377-.215c-.454-.062-.538.622-.092.682.452.063.901.133 1.35.212zm-3.385-.416c.448.027.503-.655.044-.688-.467-.028-.93-.046-1.397-.053-.46-.004-.456.685-.008.69.456.006.906.023 1.36.05zm-3.397.019c.448-.037.401-.724-.057-.687-.469.041-.93.094-1.396.166-.455.075-.333.749.11.68.447-.07.892-.12 1.343-.16zm-3.322.591c.44-.127.239-.787-.194-.661-.454.13-.896.282-1.336.452-.422.169-.17.805.253.641.416-.161.847-.31 1.277-.432zm-3.083 1.315c.395-.238.028-.822-.355-.591-.406.24-.803.51-1.177.796-.36.284.067.817.424.544.35-.267.729-.526 1.108-.75zm-2.584 2.106c.308-.34-.212-.794-.512-.462-.321.357-.61.717-.89 1.107-.263.372.304.765.565.397.263-.367.534-.706.837-1.042zm-1.854 2.772c.195-.417-.427-.7-.623-.296-.204.431-.38.856-.544 1.304-.152.431.496.655.65.23.156-.425.323-.828.517-1.238zm-1.065 3.181c.09-.45-.583-.578-.675-.14-.096.46-.176.918-.237 1.384-.057.454.624.534.685.088.06-.448.136-.89.227-1.332zm-.388 3.357c.015-.456-.675-.47-.69-.02-.014.466-.013.933 0 1.398.015.46.704.426.69-.02a24.322 24.322 0 0 1 0-1.358zm.137 3.393c-.052-.458-.732-.371-.686.073.048.461.107.923.176 1.382.07.443.749.35.682-.104-.067-.448-.124-.9-.172-1.35zm.536 3.366c-.092-.438-.77-.307-.675.142.095.454.198.906.31 1.355.114.445.776.27.67-.166-.11-.442-.211-.886-.305-1.331zm.844 3.31c-.132-.437-.788-.238-.661.197.132.443.27.885.415 1.324.147.436.794.21.655-.216a47.323 47.323 0 0 1-.41-1.305z" fill="url(#a)" fill-rule="nonzero"/></g></svg>