<svg width="150" height="150" xmlns="http://www.w3.org/2000/svg"><defs><linearGradient x1="50%" y1="0%" x2="50%" y2="100%" id="a"><stop stop-color="#DF9999" offset="0%"/><stop stop-color="#BC6060" offset="100%"/></linearGradient><linearGradient x1="50%" y1="0%" x2="50%" y2="100%" id="b"><stop stop-color="#DF9999" offset="0%"/><stop stop-color="#BC6060" offset="100%"/></linearGradient></defs><g fill="none" fill-rule="evenodd"><circle fill="#BD6161" opacity=".043" cx="75" cy="75" r="75"/><g fill-rule="nonzero"><path d="M58.751 0c-2.66.016-5.198 1.778-6.233 4.435l-4.802 12.374c-1.386 3.54.306 7.56 3.794 8.975l10.663 4.355-2.6 5.576a.85.85 0 0 0 .842 1.228.849.849 0 0 0 .697-.511l2.652-5.656 3.9 1.593-4.006 8.577a5.837 5.837 0 0 0-1.777-1.301c-2.958-1.415-6.544-.146-7.958 2.815-.795 1.665-.725 3.532 0 5.098H38.698V42.46h10.875a.849.849 0 1 0 0-1.7H37.85a.848.848 0 0 0-.16 0 .85.85 0 0 0-.689.85v6.798c0 .47.38.85.849.85h17.268c.464.466.994.87 1.618 1.168 2.958 1.415 6.518.12 7.931-2.841.773-1.62.738-3.407.08-4.94l4.509-9.638L94.348 43.23a.849.849 0 0 0 1.088-.478l3.501-8.949a.854.854 0 0 0-.93-1.148.852.852 0 0 0-.662.537l-3.156 8.126L52.146 24.19c-2.631-1.069-3.922-4.071-2.865-6.772L54.11 5.072c1.053-2.702 4.056-4.164 6.552-2.948.017.01.035.019.053.027l47.348 19.198-1.99 5.046-19.522 2.522L54.613 15.96a.848.848 0 0 0-1.232.896.85.85 0 0 0 .595.67l32.15 13.039c.134.053.28.072.424.053l20.239-2.576a.849.849 0 0 0 .69-.531l2.466-6.32a.85.85 0 0 0-.477-1.089L61.404.611V.584c-.017-.007-.037.008-.054 0A5.932 5.932 0 0 0 58.751 0zm.743 40.787c.554.029 1.112.17 1.644.425 2.13 1.019 3.034 3.523 2.016 5.656a4.236 4.236 0 0 1-5.676 1.991 4.256 4.256 0 0 1-2.016-5.682c.763-1.6 2.37-2.476 4.032-2.39z" fill="url(#a)" transform="translate(20 50)"/><path d="M15.898 3c-1.822.011-3.56 1.22-4.27 3.043L8.34 14.535c-.95 2.43.21 5.188 2.598 6.16l7.304 2.988-1.78 3.827a.585.585 0 0 0 .575.843.582.582 0 0 0 .478-.35l1.817-3.882 2.67 1.093L19.26 31.1a3.999 3.999 0 0 0-1.217-.893c-2.026-.97-4.483-.1-5.45 1.932a4.113 4.113 0 0 0 0 3.499H2.161v-3.499h7.45a.581.581 0 0 0 .51-.877.581.581 0 0 0-.51-.29h-8.03a.58.58 0 0 0-.11 0 .583.583 0 0 0-.472.584v4.665c0 .322.26.583.581.583h11.83c.318.32.68.597 1.108.802 2.026.97 4.464.082 5.432-1.95a4.096 4.096 0 0 0 .055-3.39l3.088-6.614 17.188 7.016a.58.58 0 0 0 .744-.329l2.399-6.14a.587.587 0 0 0-.637-.789.584.584 0 0 0-.453.37l-2.162 5.575-28.797-11.754c-1.802-.733-2.686-2.793-1.962-4.646l3.307-8.474c.72-1.854 2.778-2.858 4.487-2.023a.58.58 0 0 0 .036.018l32.43 13.176-1.362 3.462-13.372 1.731-21.874-8.893a.58.58 0 0 0-.844.615.583.583 0 0 0 .408.46l22.02 8.948a.58.58 0 0 0 .29.036L48.8 22.244a.582.582 0 0 0 .473-.365l1.69-4.337a.584.584 0 0 0-.328-.747L17.715 3.42v-.018c-.012-.005-.025.005-.037 0a4.057 4.057 0 0 0-1.78-.4zm.509 27.991c.38.02.761.117 1.126.292a2.902 2.902 0 0 1 1.38 3.881 2.899 2.899 0 0 1-3.887 1.367 2.923 2.923 0 0 1-1.38-3.9 2.872 2.872 0 0 1 2.76-1.64z" fill="url(#b)" transform="scale(-1 1) rotate(-1 2854.716 4170.691)"/></g></g></svg>