<svg width="57" height="57" xmlns="http://www.w3.org/2000/svg"><defs><linearGradient x1="50%" y1="0%" x2="50%" y2="100%" id="a"><stop stop-color="#73D1AB" offset="0%"/><stop stop-color="#3FA573" offset="100%"/></linearGradient><linearGradient x1="50%" y1="0%" x2="50%" y2="100%" id="b"><stop stop-color="#73D1AB" offset="0%"/><stop stop-color="#3FA573" offset="100%"/></linearGradient><linearGradient x1="50%" y1="0%" x2="50%" y2="100%" id="c"><stop stop-color="#73D1AB" offset="0%"/><stop stop-color="#3FA573" offset="100%"/></linearGradient><linearGradient x1="50%" y1="0%" x2="50%" y2="100%" id="d"><stop stop-color="#73D1AB" offset="0%"/><stop stop-color="#3FA573" offset="100%"/></linearGradient><linearGradient x1="50%" y1="0%" x2="50%" y2="100%" id="e"><stop stop-color="#73D1AB" offset="0%"/><stop stop-color="#3FA573" offset="100%"/></linearGradient><linearGradient x1="50%" y1="0%" x2="50%" y2="100%" id="f"><stop stop-color="#73D1AB" offset="0%"/><stop stop-color="#3FA573" offset="100%"/></linearGradient><linearGradient x1="50%" y1="0%" x2="50%" y2="100%" id="g"><stop stop-color="#73D1AB" offset="0%"/><stop stop-color="#3FA573" offset="100%"/></linearGradient><linearGradient x1="50%" y1="0%" x2="50%" y2="100%" id="h"><stop stop-color="#73D1AB" offset="0%"/><stop stop-color="#3FA573" offset="100%"/></linearGradient></defs><g fill="none"><path d="M11.253 16.718a.703.703 0 0 0-.48.309 20.839 20.839 0 0 0-2.944 7.011.689.689 0 0 0 .118.554c.117.16.298.263.496.284 1.881.195 3.3 1.753 3.3 3.624 0 1.87-1.419 3.429-3.3 3.624a.706.706 0 0 0-.496.284.689.689 0 0 0-.118.554 20.839 20.839 0 0 0 2.944 7.011.705.705 0 0 0 1.033.163 3.714 3.714 0 0 1 4.925.26 3.603 3.603 0 0 1 .263 4.865.688.688 0 0 0 .166 1.021 21.377 21.377 0 0 0 7.098 2.908.71.71 0 0 0 .56-.117.693.693 0 0 0 .288-.49c.197-1.858 1.775-3.259 3.669-3.259 1.893 0 3.47 1.401 3.668 3.259a.693.693 0 0 0 .287.49.708.708 0 0 0 .56.117 21.377 21.377 0 0 0 7.1-2.908.694.694 0 0 0 .164-1.02 3.603 3.603 0 0 1 .264-4.866 3.711 3.711 0 0 1 4.924-.26.707.707 0 0 0 1.034-.163 20.839 20.839 0 0 0 2.944-7.011.689.689 0 0 0-.119-.554.706.706 0 0 0-.495-.284c-1.881-.195-3.3-1.753-3.3-3.624 0-1.87 1.419-3.429 3.3-3.624a.706.706 0 0 0 .495-.284.689.689 0 0 0 .119-.554 20.839 20.839 0 0 0-2.944-7.011.703.703 0 0 0-.48-.31.714.714 0 0 0-.554.146 3.712 3.712 0 0 1-4.924-.26 3.603 3.603 0 0 1-.264-4.864.688.688 0 0 0-.165-1.021 21.377 21.377 0 0 0-7.098-2.908.701.701 0 0 0-.848.607c-.198 1.858-1.775 3.259-3.668 3.259-1.894 0-3.472-1.401-3.67-3.259a.693.693 0 0 0-.286-.49.709.709 0 0 0-.561-.117 21.377 21.377 0 0 0-7.098 2.908.694.694 0 0 0-.166 1.02 3.603 3.603 0 0 1-.263 4.866 3.713 3.713 0 0 1-4.925.26.712.712 0 0 0-.553-.146zm6.473.868a4.977 4.977 0 0 0 .812-6.077 19.95 19.95 0 0 1 5.31-2.177c.583 2.175 2.579 3.734 4.927 3.734 2.347 0 4.342-1.559 4.925-3.734a19.937 19.937 0 0 1 5.31 2.177 4.977 4.977 0 0 0 .813 6.077 5.133 5.133 0 0 0 6.152.802 19.454 19.454 0 0 1 2.204 5.246c-2.202.576-3.78 2.547-3.78 4.866 0 2.319 1.578 4.29 3.78 4.866a19.454 19.454 0 0 1-2.204 5.246 5.132 5.132 0 0 0-6.152.802 4.977 4.977 0 0 0-.812 6.077 19.937 19.937 0 0 1-5.31 2.177c-.584-2.175-2.579-3.734-4.926-3.734-2.348 0-4.344 1.559-4.926 3.734a19.95 19.95 0 0 1-5.311-2.177 4.977 4.977 0 0 0-.812-6.077 5.131 5.131 0 0 0-6.153-.802 19.45 19.45 0 0 1-2.204-5.246c2.203-.576 3.78-2.547 3.78-4.866 0-2.319-1.577-4.29-3.78-4.866a19.45 19.45 0 0 1 2.204-5.246 5.13 5.13 0 0 0 6.153-.802z" fill="url(#a)"/><path d="M28.775 7.064a.7.7 0 0 0 .703-.696V1.362a.7.7 0 0 0-.703-.695.7.7 0 0 0-.704.695v5.006a.7.7 0 0 0 .704.696z" fill="url(#b)"/><path d="M11.027 11.952a.706.706 0 0 0 .995 0 .689.689 0 0 0 0-.983l-3.583-3.54a.71.71 0 0 0-.995 0 .689.689 0 0 0 0 .983l3.583 3.54z" fill="url(#c)"/><path d="M1.302 29.195h5.067a.7.7 0 0 0 .704-.695.7.7 0 0 0-.704-.695H1.302a.7.7 0 0 0-.704.695.7.7 0 0 0 .704.695z" fill="url(#d)"/><path d="M7.941 49.775c.18 0 .36-.068.498-.204l3.583-3.54a.689.689 0 0 0 0-.983.71.71 0 0 0-.995 0l-3.583 3.54a.689.689 0 0 0 0 .983.706.706 0 0 0 .497.204z" fill="url(#c)"/><path d="M29.478 55.638v-5.006a.7.7 0 0 0-.703-.696.7.7 0 0 0-.704.696v5.006a.7.7 0 0 0 .704.695.7.7 0 0 0 .703-.695z" fill="url(#b)"/><path d="M49.608 49.775c.18 0 .36-.068.498-.204a.689.689 0 0 0 0-.983l-3.584-3.54a.71.71 0 0 0-.995 0 .689.689 0 0 0 0 .983l3.583 3.54a.706.706 0 0 0 .498.204z" fill="url(#e)"/><path d="M51.18 29.195h5.067a.7.7 0 0 0 .704-.695.7.7 0 0 0-.704-.695H51.18a.7.7 0 0 0-.703.695.7.7 0 0 0 .703.695z" fill="url(#f)"/><path d="M46.025 12.155c.18 0 .36-.067.497-.203l3.584-3.54a.689.689 0 0 0 0-.983.71.71 0 0 0-.996 0l-3.583 3.54a.689.689 0 0 0 0 .983.706.706 0 0 0 .498.203z" fill="url(#e)"/><path d="M28.775 33.86c2.992 0 5.426-2.404 5.426-5.36 0-2.956-2.434-5.36-5.426-5.36-2.993 0-5.427 2.404-5.427 5.36 0 2.956 2.434 5.36 5.427 5.36zm0-9.33c2.215 0 4.018 1.781 4.018 3.97s-1.803 3.97-4.018 3.97c-2.217 0-4.02-1.781-4.02-3.97s1.803-3.97 4.02-3.97z" fill="url(#g)"/><path d="M18.023 30.083a.705.705 0 0 0-.496.284.688.688 0 0 0-.118.554 11.306 11.306 0 0 0 1.597 3.805.708.708 0 0 0 1.034.163 1.62 1.62 0 0 1 2.15.114c.585.578.635 1.491.116 2.126a.689.689 0 0 0 .165 1.02 11.612 11.612 0 0 0 3.853 1.578.712.712 0 0 0 .56-.117.694.694 0 0 0 .287-.49 1.6 1.6 0 0 1 1.604-1.423 1.6 1.6 0 0 1 1.602 1.424.694.694 0 0 0 .287.49.709.709 0 0 0 .561.116 11.611 11.611 0 0 0 3.852-1.578.693.693 0 0 0 .166-1.02 1.574 1.574 0 0 1 .115-2.126 1.622 1.622 0 0 1 2.151-.114.709.709 0 0 0 1.034-.163 11.315 11.315 0 0 0 1.597-3.805.688.688 0 0 0-.118-.554.705.705 0 0 0-.496-.284 1.595 1.595 0 0 1-1.441-1.583c0-.817.62-1.498 1.441-1.583a.705.705 0 0 0 .496-.284.688.688 0 0 0 .118-.554 11.315 11.315 0 0 0-1.597-3.805.707.707 0 0 0-1.034-.163 1.622 1.622 0 0 1-2.151-.114 1.574 1.574 0 0 1-.115-2.126.689.689 0 0 0-.166-1.02 11.611 11.611 0 0 0-3.852-1.578.705.705 0 0 0-.848.606 1.6 1.6 0 0 1-1.602 1.424 1.6 1.6 0 0 1-1.604-1.424.694.694 0 0 0-.287-.49.713.713 0 0 0-.56-.116 11.612 11.612 0 0 0-3.853 1.578.689.689 0 0 0-.165 1.02 1.575 1.575 0 0 1-.115 2.126 1.62 1.62 0 0 1-2.151.114.706.706 0 0 0-1.034.163 11.306 11.306 0 0 0-1.597 3.805.688.688 0 0 0 .118.554c.117.16.298.263.496.284.821.085 1.44.766 1.44 1.583s-.619 1.498-1.44 1.583zm.926-4.363c.213-.737.51-1.444.89-2.116a3.042 3.042 0 0 0 3.347-.624 2.95 2.95 0 0 0 .632-3.307 10.18 10.18 0 0 1 2.141-.878 3.013 3.013 0 0 0 2.816 1.898 3.012 3.012 0 0 0 2.814-1.898c.746.21 1.462.504 2.142.878a2.95 2.95 0 0 0 .632 3.307 3.04 3.04 0 0 0 3.348.624c.378.671.676 1.38.889 2.116a2.976 2.976 0 0 0-1.923 2.78c0 1.26.786 2.346 1.923 2.78a9.923 9.923 0 0 1-.89 2.116 3.04 3.04 0 0 0-3.347.624 2.95 2.95 0 0 0-.632 3.307c-.68.374-1.396.668-2.142.878a3.012 3.012 0 0 0-2.814-1.898 3.013 3.013 0 0 0-2.816 1.898 10.18 10.18 0 0 1-2.141-.878 2.95 2.95 0 0 0-.632-3.307 3.041 3.041 0 0 0-3.348-.624 9.912 9.912 0 0 1-.889-2.116 2.976 2.976 0 0 0 1.922-2.78c0-1.26-.786-2.346-1.922-2.78z" fill="url(#h)"/></g></svg>