<svg width="56" height="57" xmlns="http://www.w3.org/2000/svg"><defs><linearGradient x1="50%" y1="0%" x2="50%" y2="100%" id="a"><stop stop-color="#DDD188" offset="0%"/><stop stop-color="#B9A450" offset="100%"/></linearGradient><linearGradient x1="50%" y1="0%" x2="50%" y2="100%" id="b"><stop stop-color="#DDD188" offset="0%"/><stop stop-color="#B9A450" offset="100%"/></linearGradient></defs><g fill="none"><path d="M44.803 17.568c0-4.643-1.931-9.13-5.298-12.312C36.09 2.031 31.625.414 26.929.71c-8.487.53-15.391 7.641-15.72 16.19-.174 4.56 1.434 8.899 4.53 12.218 2.352 2.524 3.696 5.905 3.85 9.578h-.222a2.811 2.811 0 0 0-2.8 2.815c0 1.276.853 2.343 2.012 2.688v6.021a2.55 2.55 0 0 0 2.54 2.554h.14v.941c0 1.81 1.465 3.283 3.266 3.283h6.95c1.8 0 3.265-1.473 3.265-3.283v-.941h.14a2.55 2.55 0 0 0 2.54-2.554V44.2a2.808 2.808 0 0 0 2.013-2.689 2.811 2.811 0 0 0-2.8-2.815h-.223c.157-3.657 1.515-7.054 3.893-9.623a16.884 16.884 0 0 0 4.5-11.504zM33.34 53.714a1.872 1.872 0 0 1-1.865 1.875h-6.95a1.872 1.872 0 0 1-1.866-1.875v-.941H33.34v.941zm1.54-2.348H21.12c-.63 0-1.14-.514-1.14-1.147v-5.893h16.04v5.893c0 .633-.511 1.147-1.14 1.147zm3.153-9.856c0 .777-.628 1.408-1.4 1.408H19.366c-.772 0-1.4-.631-1.4-1.408 0-.776.628-1.408 1.4-1.408h17.265c.773 0 1.401.632 1.401 1.408zM24.71 24.101h-2.494a2.503 2.503 0 0 1-2.494-2.507 2.504 2.504 0 0 1 2.494-2.507 2.504 2.504 0 0 1 2.494 2.507v2.507zm5.18 14.594h-3.78V25.509h3.78v13.186zm5.12 0h-3.72V25.509h2.494c2.147 0 3.893-1.756 3.893-3.915 0-2.158-1.746-3.915-3.893-3.915-2.148 0-3.894 1.757-3.894 3.915v2.507h-3.78v-2.507c0-2.158-1.747-3.915-3.894-3.915-2.147 0-3.894 1.757-3.894 3.915 0 2.159 1.747 3.915 3.894 3.915h2.494v13.186h-3.72c-.157-4.033-1.634-7.756-4.23-10.54-2.838-3.043-4.312-7.021-4.152-11.202.301-7.836 6.63-14.354 14.408-14.84 4.303-.264 8.401 1.212 11.53 4.169 3.132 2.959 4.857 6.967 4.857 11.286 0 3.927-1.465 7.672-4.125 10.545-2.62 2.83-4.11 6.567-4.268 10.582zM31.29 24.1v-2.507a2.504 2.504 0 0 1 2.494-2.507 2.504 2.504 0 0 1 2.493 2.507 2.503 2.503 0 0 1-2.493 2.507H31.29z" fill="url(#a)"/><path d="M.7 2.111h6.5c.386 0 .7-.315.7-.704a.702.702 0 0 0-.7-.703H.7a.7.7 0 0 0-.7.703c0 .39.313.704.7.704zm0 7.839h6.5c.386 0 .7-.314.7-.703a.702.702 0 0 0-.7-.704H.7c-.387 0-.7.315-.7.704 0 .39.313.704.7.704zm0 7.84h6.5c.386 0 .7-.314.7-.703a.702.702 0 0 0-.7-.704H.7c-.387 0-.7.315-.7.704 0 .389.313.704.7.704zm0 7.84h6.5c.386 0 .7-.315.7-.704a.702.702 0 0 0-.7-.704H.7c-.387 0-.7.315-.7.704 0 .389.313.704.7.704zm0 7.84h6.5c.386 0 .7-.316.7-.704a.702.702 0 0 0-.7-.704H.7c-.387 0-.7.315-.7.704 0 .388.313.703.7.703zm0 7.839h6.5c.386 0 .7-.315.7-.704a.702.702 0 0 0-.7-.703H.7a.7.7 0 0 0-.7.703c0 .39.313.704.7.704zm0 7.84h6.5c.386 0 .7-.315.7-.704a.702.702 0 0 0-.7-.704H.7c-.387 0-.7.315-.7.704 0 .389.313.704.7.704zm0 7.839h6.5c.386 0 .7-.315.7-.704a.702.702 0 0 0-.7-.704H.7c-.387 0-.7.315-.7.704 0 .389.313.704.7.704zM55.3.704h-6.5c-.386 0-.7.314-.7.703 0 .39.314.704.7.704h6.5c.387 0 .7-.315.7-.704a.702.702 0 0 0-.7-.703zm0 7.839h-6.5c-.386 0-.7.315-.7.704 0 .39.314.704.7.704h6.5c.387 0 .7-.315.7-.704a.702.702 0 0 0-.7-.704zm0 7.84h-6.5c-.386 0-.7.315-.7.704 0 .389.314.704.7.704h6.5c.387 0 .7-.315.7-.704a.702.702 0 0 0-.7-.704zm0 7.839h-6.5c-.386 0-.7.315-.7.704 0 .389.314.704.7.704h6.5c.387 0 .7-.315.7-.704a.702.702 0 0 0-.7-.704zm0 7.84h-6.5c-.386 0-.7.315-.7.704 0 .388.314.703.7.703h6.5c.387 0 .7-.315.7-.703a.702.702 0 0 0-.7-.704zm0 7.84h-6.5c-.386 0-.7.314-.7.703 0 .39.314.704.7.704h6.5c.387 0 .7-.315.7-.704a.702.702 0 0 0-.7-.703zm0 7.839h-6.5c-.386 0-.7.315-.7.704 0 .389.314.704.7.704h6.5c.387 0 .7-.315.7-.704a.702.702 0 0 0-.7-.704zm0 7.839h-6.5c-.386 0-.7.315-.7.704 0 .389.314.704.7.704h6.5c.387 0 .7-.315.7-.704a.702.702 0 0 0-.7-.704z" fill="url(#b)"/></g></svg>