<?xml version="1.0" encoding="UTF-8"?>
<svg width="61px" height="59px" viewBox="0 0 61 59" version="1.1" xmlns="http://www.w3.org/2000/svg" xmlns:xlink="http://www.w3.org/1999/xlink">
    <!-- Generator: Sketch 54.1 (76490) - https://sketchapp.com -->
    <title>Shape</title>
    <desc>Created with Sketch.</desc>
    <defs>
        <linearGradient x1="50%" y1="0%" x2="50%" y2="100%" id="linearGradient-1">
            <stop stop-color="#DF9999" offset="0%"></stop>
            <stop stop-color="#BC6060" offset="100%"></stop>
        </linearGradient>
    </defs>
    <g id="Page-1" stroke="none" stroke-width="1" fill="none" fill-rule="evenodd">
        <g id="homescreen" transform="translate(-618.000000, -1856.000000)" fill="url(#linearGradient-1)" fill-rule="nonzero">
            <g id="unique" transform="translate(0.000000, 1526.000000)">
                <g id="list" transform="translate(157.000000, 229.000000)">
                    <g id="technology" transform="translate(357.000000, 58.000000)">
                        <path d="M113.064906,65.311 C113.156498,65.5382414 113.510704,65.4037833 113.416989,65.1712229 C113.323893,64.9394026 113.233022,64.7070053 113.145286,64.4731276 C113.058283,64.2420349 112.702484,64.3722276 112.790068,64.6048508 C112.878803,64.8414131 112.970698,65.0765327 113.064906,65.311 L113.064906,65.311 Z M124.444975,52.4141574 C124.345862,52.6445601 124.696757,52.7873104 124.793695,52.5619884 C124.892719,52.3326019 124.993842,52.1044322 125.098086,51.8773289 C125.201294,51.6519568 124.85605,51.4962725 124.75288,51.7215693 C124.647434,51.9512946 124.545124,52.1821113 124.444975,52.4141574 L124.444975,52.4141574 Z M154.570105,62.6919414 C154.505792,62.6673907 154.433679,62.6786311 154.380526,62.7223381 C154.269229,62.8138544 154.29815,62.9907775 154.432731,63.0427266 C154.66717,63.1334901 154.900472,63.2261354 155.133054,63.3215156 C155.361944,63.4148885 155.510189,63.068469 155.277557,62.9735656 C155.042625,62.8772195 154.806934,62.7835957 154.570105,62.6919414 L154.570105,62.6919414 Z M134.492061,50.8390866 C140.518005,50.8390866 145.973505,53.2632075 149.922497,57.1824493 C152.27861,59.5208121 154.098243,62.3915247 155.183008,65.5970777 C155.266876,65.397423 155.348533,65.1962001 155.428091,64.9948142 C155.518974,64.7628684 155.870577,64.9013911 155.781437,65.13143 C155.688582,65.3663489 155.592718,65.5997247 155.49492,65.832649 C155.462485,65.910052 155.381865,65.9573219 155.298174,65.9478127 C155.957795,68.0138973 156.314011,70.2139382 156.314011,72.4966385 C156.314011,74.6034318 156.010581,76.6398098 155.445231,78.5654524 L155.539704,78.7796217 C155.605573,78.9287951 155.460892,79.0868253 155.30237,79.0323546 C154.234506,82.3845846 152.367395,85.3843483 149.922497,87.8108276 C148.46607,89.2562827 146.804529,90.4980812 144.985199,91.4901702 L144.91277,91.6743067 C144.855648,91.8159906 144.662555,91.8378943 144.576765,91.7073378 C141.560412,93.2702022 138.130317,94.1541903 134.492061,94.1541903 C132.417827,94.1541903 130.411193,93.8669208 128.510321,93.3303558 C128.352026,93.4023896 128.19315,93.4727925 128.033933,93.5427939 C127.801731,93.6437817 127.655951,93.2962834 127.880859,93.198457 L127.955614,93.1655889 C124.558181,92.108366 121.51833,90.249024 119.061626,87.8108276 C117.74074,86.4998933 116.588717,85.0214697 115.639949,83.4107459 C115.595013,83.4375547 115.538359,83.446399 115.480403,83.4263896 C115.240882,83.3423 115.002423,83.2554631 114.764621,83.1667068 C114.530283,83.0798196 114.664308,82.7277674 114.897395,82.8141904 C115.065814,82.8770537 115.234511,82.93865 115.403664,82.9995312 C113.662173,79.8886934 112.670112,76.3076917 112.670112,72.4966385 C112.670112,66.9058167 114.804691,61.8097473 118.309073,57.9674318 C122.45854,53.4179007 128.302982,50.8390866 134.492061,50.8390866 L134.492061,50.8390866 Z M142.767383,88.7593225 C143.237135,88.2940636 143.536988,87.6876476 143.605586,87.1318008 C143.726504,86.1521691 144.031653,85.7824033 144.378717,85.5422782 C144.506106,85.454124 144.993946,85.2442325 145.211586,84.8610058 C145.393682,84.5403664 145.508444,83.9877814 145.508444,82.9550088 C145.508444,80.9335469 146.232429,79.9002223 147.527427,78.4776369 L147.540421,78.3405068 L147.366984,78.543925 C147.208045,78.7292157 146.914221,78.4942215 147.077597,78.3007013 C147.24077,78.1100414 147.402768,77.9183653 147.563679,77.7258236 C147.700169,77.5619725 147.967903,77.7188109 147.885615,77.9168223 C147.911793,77.9408084 147.931449,77.9721585 147.940638,78.0083009 C148.152414,77.7538242 148.349236,77.4748596 148.530422,77.1983788 C148.593522,77.1020829 148.783139,76.8285628 148.575876,77.0871543 C148.421576,77.2779397 148.122646,77.0495693 148.279385,76.8525364 L148.544756,76.5200295 C148.366705,76.4980254 148.203708,76.4657219 148.068065,76.4396909 C148.057523,76.6070922 148.046551,76.7743932 148.035036,76.9417319 C148.017137,77.1874646 147.641101,77.1661004 147.656661,76.9166166 L147.692712,76.3645334 C146.892328,76.1694074 146.192094,75.7408177 145.637362,75.1384037 C145.059296,74.5105858 144.661632,73.1527956 144.67225,72.277702 C144.686306,71.1203694 145.40047,70.8806081 146.209626,71.6721642 C146.499569,71.955783 146.841603,72.3863046 147.239936,72.9993444 C147.564893,73.4993029 148.075763,73.9188727 148.639748,74.1233949 C149.213465,74.3314673 150.133957,74.2828803 150.226458,73.5276046 C150.258666,73.2647729 150.16825,72.924764 149.900857,72.4864644 C149.07221,71.1282603 148.764217,70.2835758 148.783164,69.8189819 C148.79918,69.426384 148.970658,69.2216736 149.249364,69.1678302 L149.248997,69.167366 C149.133945,69.01956 149.018438,68.872281 148.902413,68.7252277 C148.749427,68.5329369 149.043656,68.2954212 149.200041,68.4920149 C149.356566,68.69039 149.51194,68.8892293 149.666481,69.0891224 C149.68898,69.1182646 149.702253,69.1532904 149.705021,69.1893324 C149.990818,69.2589701 150.335493,69.4352534 150.693151,69.6829682 C151.8216,70.464551 153.034044,71.9399386 153.099496,73.108775 C153.144837,73.7698247 153.210579,74.2331391 153.362768,74.5906861 C153.411724,74.7363217 153.626229,75.1447515 153.901636,75.1087346 C154.027192,75.0923256 154.165401,74.9835348 154.306353,74.7154217 C154.710501,73.9467102 154.710514,73.027345 155.157664,72.3368771 C155.299488,72.1178778 155.470537,71.9508152 155.672503,71.8731988 C155.62356,70.2050437 155.378831,68.5856387 154.960463,67.0367496 C154.879654,67.2109504 154.796645,67.3845992 154.713156,67.557558 C154.605814,67.7782006 154.264071,67.6230558 154.370857,67.3955761 C154.479563,67.1703922 154.586664,66.9445182 154.690959,66.7172769 C154.718439,66.6572738 154.774183,66.6168411 154.839723,66.6082226 C154.201515,64.4320174 153.218605,62.4015231 151.953388,60.5789633 C151.512419,59.9437313 151.147898,59.5243498 150.311755,59.3331379 C149.448018,59.1356283 148.387157,59.286696 147.499896,59.3842214 C147.265811,59.4099639 147.028098,59.4360827 146.788172,59.4602069 C146.832299,59.6544045 146.875365,59.8486648 146.917558,60.0432765 C146.968688,60.2842923 146.601311,60.3670521 146.54697,60.1230631 C146.501655,59.9140246 146.455745,59.7046851 146.407598,59.4962739 C144.712206,59.6458738 142.940252,59.6346836 141.548834,58.6352935 C140.24945,57.7020032 139.986708,57.9000271 139.562854,58.2194998 C138.964273,58.6706329 138.522495,58.8758075 137.753826,58.9464362 C136.688047,59.0443504 136.220129,59.4423176 136.890671,60.4065063 C137.413663,61.1585203 137.150808,62.0243181 136.279778,62.2951535 C135.384833,62.5734909 134.699754,61.9659082 134.699754,61.0471327 C134.699754,59.6848514 133.664438,60.2345636 133.096649,60.8371408 C132.713648,61.2435633 132.478311,61.7448265 132.755462,62.0020757 C133.345018,62.5493291 134.08713,62.9496673 134.08713,63.8752423 C134.08713,64.8955953 132.860351,64.7242422 132.144102,64.9007889 C131.787936,64.9885793 131.525574,65.1931391 131.682668,65.8208692 C132.109809,67.4461453 132.454952,67.5203995 131.489878,69.1229063 C130.64902,70.5215307 129.751673,71.7277388 129.496807,73.4003223 C129.375031,74.1993678 129.445374,75.0117863 129.837033,75.792955 C131.111162,78.3340335 132.926258,78.1449417 134.393821,77.992055 C135.608857,77.8654753 136.623417,77.7597957 137.13047,78.9001673 C137.55804,79.8617717 136.545717,80.2036122 137.747405,82.0974656 C138.402791,83.1303386 138.296385,84.1234562 138.19362,85.082376 C138.145612,85.5304733 137.995622,86.3189558 138.241665,86.8633866 C138.322184,86.8602001 138.401375,86.9083732 138.429829,86.9930649 C138.454111,87.0679464 138.429993,87.1483603 138.368536,87.1979259 C139.132869,89.1073979 140.840358,90.6680292 142.767383,88.7593225 L142.767383,88.7593225 Z M155.680783,72.6869973 C155.276003,72.9363556 155.270593,74.1784301 154.918725,74.8907139 C154.723685,75.2854946 154.402344,75.7343696 153.922771,75.7820659 C153.622058,75.8119985 153.330194,75.6679435 153.103743,75.3954897 C152.850785,75.0911338 152.652826,74.5908115 152.568237,73.9497712 C152.435577,73.7335695 152.30676,73.5189861 152.158767,73.3125445 C152.055547,73.1507131 152.305888,72.9273859 152.458153,73.071604 C152.533362,73.1428725 152.544397,73.2522906 152.517613,73.0049269 C152.487352,72.7252347 152.35837,72.4133518 152.166465,72.0963505 C152.082015,72.22914 151.996845,72.3614654 151.911093,72.4934269 C151.803234,72.6570397 151.54632,72.5701902 151.562196,72.3766449 C151.560945,72.3749137 151.559706,72.3731574 151.558505,72.3713634 C151.419285,72.1631906 151.279205,71.9554192 151.137255,71.7490654 C150.996796,71.5463246 151.307899,71.3310889 151.450077,71.5363513 C151.557153,71.6919728 151.663028,71.8483345 151.768599,72.0049597 L151.772328,72.0105297 C151.827212,71.9248594 151.881844,71.8390386 151.936134,71.752992 C151.593658,71.2860646 151.142715,70.8292611 150.697297,70.4690421 L150.699458,70.4720278 L150.796776,70.6070127 C150.940407,70.80806 150.63589,71.0289284 150.488732,70.8265012 C150.342054,70.6230453 150.194655,70.4202543 150.045437,70.2186175 C149.995722,70.1510999 149.998895,70.0681771 150.037827,70.0066435 C149.824232,69.8827233 149.635765,69.8037647 149.492057,69.7845707 C149.445086,69.7782982 149.414673,69.7951588 149.412702,69.8434949 C149.398241,70.1978429 149.681712,70.9216932 150.439055,72.1630275 C150.724966,72.6316861 150.853076,73.0346838 150.863327,73.3813166 L150.967672,73.2286556 C151.108447,73.0254005 151.421598,73.2313905 151.282011,73.439187 C151.13977,73.6476358 150.996505,73.8551688 150.85166,74.0618362 C150.807608,74.1242981 150.734396,74.1514582 150.66543,74.140406 C150.527474,74.3627422 150.305612,74.5653199 150.069934,74.6892526 C150.201115,74.7118839 150.274997,74.8680951 150.189877,74.9851782 C150.040583,75.1886592 149.890403,75.3913498 149.738606,75.5929992 C149.591448,75.7894048 149.283669,75.5694521 149.434455,75.3682167 C149.582789,75.1711588 149.729644,74.9731224 149.875538,74.7742706 C149.444403,74.9276591 148.930234,74.8947032 148.424964,74.7114574 C148.334611,74.6786897 148.244334,74.6410169 148.154714,74.5987274 C148.149582,74.7516267 148.144147,74.9044758 148.138118,75.0573374 C148.127967,75.301615 147.751362,75.2944643 147.759187,75.0431615 C147.767732,74.8264455 147.775088,74.6097796 147.781724,74.3930009 C147.354483,74.121902 146.98416,73.7606292 146.709145,73.3374841 C146.337482,72.7654792 146.038893,72.3798815 145.803367,72.1415253 C145.41981,71.7533307 145.308904,71.6959998 145.301787,72.2850534 C145.292623,73.0398649 145.622067,74.1962817 146.101488,74.7169647 C146.560811,75.2157816 147.134655,75.5719988 147.794226,75.7444433 C147.982275,75.7936074 148.170363,75.8234019 148.342119,75.8505996 C148.664055,75.9015577 148.938337,75.9450012 149.140556,76.0892946 C149.558078,76.3872148 149.543427,76.8903975 148.690132,78.068329 C148.463264,78.3815291 148.197552,78.6732396 147.92164,78.9761402 C147.081895,79.8980521 146.140458,80.931615 146.140458,82.9550088 C146.140458,84.0571054 146.005561,84.7058108 145.80161,85.1188822 C145.598329,85.5305109 145.371233,85.6846019 144.983454,85.9060098 C144.664325,86.0882144 144.348596,86.2684995 144.232671,87.2077486 C144.148007,87.8936878 143.782753,88.6372841 143.211765,89.2028157 C141.048266,91.3456635 138.812084,89.8876257 137.853343,87.5991045 L137.768716,87.6641382 C137.568936,87.8160464 137.341398,87.5194559 137.536109,87.3668954 L137.707613,87.2348585 C137.698373,87.2106967 137.68912,87.1863969 137.67988,87.1618463 C137.570643,86.8715032 137.518767,86.581524 137.500919,86.2904032 L137.228875,86.301631 C136.981934,86.3117549 136.961077,85.9359047 137.212922,85.9256052 L137.49494,85.9139383 C137.502183,85.6170468 137.534163,85.3183362 137.566535,85.0162134 C137.657962,84.1629983 137.75265,83.279374 137.214136,82.4306877 C135.947756,80.434868 136.844079,79.807715 136.552758,79.1525489 C136.231341,78.4296897 135.424397,78.5137416 134.458008,78.6144158 C132.79605,78.7875628 130.740524,79.001682 129.271684,76.0722835 C128.815546,75.1625404 128.73236,74.2247841 128.8722,73.3072129 C129.143511,71.5267041 130.056077,70.2875526 130.949202,68.8019282 C131.804331,67.3796188 131.460818,67.5302223 131.070397,65.9703311 C130.78795,64.8417644 131.302031,64.4635808 131.993505,64.293131 C132.310006,64.2151132 133.455115,64.1802128 133.455115,63.8752423 C133.455115,63.2681112 132.738208,62.8404876 132.325894,62.4578128 C131.733368,61.9078371 132.03355,61.0516614 132.637452,60.4108093 C133.630208,59.3573373 135.331769,59.0183822 135.331769,61.0471327 C135.331769,61.5242341 135.598555,61.8507947 136.092146,61.6973058 C136.55928,61.552059 136.642226,61.1500398 136.372217,60.7617826 C135.419063,59.3913093 136.138295,58.4672774 137.697046,58.3240755 C137.932989,58.3023976 138.133199,58.2605221 138.306409,58.2061267 L138.226977,58.1441667 C138.033417,57.9925093 138.259122,57.6944887 138.460165,57.8473755 L138.705691,58.0392899 C138.896268,57.9379383 139.046675,57.8246062 139.182659,57.722113 C139.836719,57.2291295 140.242131,56.9235693 141.919144,58.1280964 C143.416248,59.2033843 145.546718,58.96908 147.430779,58.7618606 C148.422575,58.6528064 149.5398,58.4963694 150.51922,58.7389659 C150.184834,58.3555887 149.836733,57.9843174 149.475638,57.6259425 C148.236017,56.3956604 146.843347,55.3173743 145.328673,54.4210167 L145.346964,54.4718619 L145.387236,54.585194 C145.468665,54.817491 145.115899,54.9465045 145.029869,54.7110712 C144.960601,54.516146 144.890283,54.3217351 144.81793,54.1279013 C141.762771,52.4325986 138.241097,51.46634 134.492061,51.46634 C132.691211,51.46634 130.942895,51.6893662 129.273516,52.1090363 L129.470376,52.2023088 C129.692567,52.3087412 129.534222,52.6495655 129.306027,52.5414773 C129.106045,52.4464609 128.905836,52.3524733 128.704349,52.2606308 C126.634564,52.8426718 124.693597,53.7290058 122.933701,54.8678971 C124.024394,54.5492775 125.207905,54.463946 126.51232,54.6646043 C127.634083,54.8371491 128.756137,54.5907515 129.700733,54.3833188 C131.131993,54.0690147 132.211222,53.8320259 132.59536,55.028637 C132.775775,55.5905682 132.677585,56.2940328 132.429317,56.8185295 C132.074808,57.5674198 131.426942,58.0271965 130.617521,58.1766082 C129.836212,58.3208388 129.205866,58.7812804 128.735571,59.4063007 C128.301895,59.9825834 127.706461,60.3900974 127.119307,60.5784866 C126.430272,60.7995558 125.62774,60.746879 125.165636,60.1273284 C124.723276,59.5342855 124.811923,58.8140356 124.97138,58.1455341 C125.118134,57.5303867 125.190879,57.5127107 124.588455,57.6575435 C122.6757,58.1173453 124.552139,59.104203 123.57646,60.1031541 C122.322644,61.3869534 123.70237,62.1232234 122.701916,63.5169552 C122.188468,64.2322623 121.635202,64.4303615 121.004413,64.6562228 C119.368658,65.2419144 118.334392,66.3236253 117.759094,67.9375982 C117.470984,68.7458141 117.191583,69.5296048 116.056611,69.9574041 C115.366716,70.2174383 115.359461,70.552931 115.508995,70.9436972 C115.706007,71.4585091 115.98824,71.890486 116.079186,72.4551143 C116.413168,74.5279482 116.725889,73.8865566 118.134966,74.4029993 C120.2847,75.1910302 119.09018,76.3013815 121.335956,77.2544678 C122.048085,77.5567036 122.615811,77.8887715 123.037023,78.2427431 C124.925496,79.8296689 123.613117,81.3912035 122.327018,82.8525783 C121.848975,83.3957671 121.348128,83.9651877 120.978185,84.5825931 L121.054267,84.5993157 C121.30117,84.6534728 121.213193,85.019588 120.972889,84.9668862 L120.789036,84.9264032 C120.168271,86.1720781 120.159423,87.6176963 121.92153,89.4279745 C125.438186,92.0039785 129.785827,93.526937 134.492061,93.526937 C138.182344,93.526937 141.652307,92.5907238 144.673919,90.9445601 C146.434396,89.9858034 148.055766,88.7765092 149.475638,87.3673344 C150.560061,86.2910806 151.527423,85.0986344 152.35727,83.8105447 L152.202667,83.8595206 C151.966458,83.9326081 151.847892,83.578486 152.087615,83.5009073 C152.281353,83.4401014 152.474509,83.3774639 152.667324,83.3138102 C153.574556,81.8154776 154.298921,80.1956963 154.810018,78.4849632 C154.878352,78.2561914 154.975581,77.9048919 155.034472,77.6740501 C155.44197,76.0766743 155.665412,74.4065119 155.680783,72.6869973 L155.680783,72.6869973 Z M136.487016,65.3745784 L136.471506,65.381428 L136.47028,65.381428 C136.348541,65.4350958 136.002235,65.5877818 135.690917,65.8570115 C135.511375,66.0122818 135.39947,66.1294653 135.412844,66.1855793 C135.433864,66.2737084 135.623102,66.3823487 136.058168,66.5279342 C136.474224,66.6671719 136.86563,66.829756 137.233071,67.0880714 C137.60596,67.3502006 137.943026,67.7025288 138.237595,68.2139911 C138.585545,68.8180361 139.153561,68.7209875 139.797825,68.6108794 C140.507236,68.4896564 141.289,68.356064 142.100633,68.8541659 C142.700175,69.222075 143.283461,69.186146 143.664339,68.9677865 C143.824036,68.8762327 143.944296,68.7551728 144.008862,68.6230983 C144.064366,68.5095655 144.077082,68.3861095 144.03365,68.2686374 C143.937318,68.0081141 143.591505,67.7532485 142.887529,67.6013403 C142.343731,67.4839937 141.769938,67.3336286 141.216331,67.1218553 C140.655709,66.9074099 140.121441,66.6308539 139.668438,66.2635846 C139.020864,65.7385234 138.439221,65.4275312 137.917947,65.2890713 C137.377385,65.1455055 136.902464,65.1905298 136.487016,65.3745784 L136.487016,65.3745784 Z M136.214959,64.8109788 L136.214756,64.8105272 L136.230266,64.8036775 C136.775783,64.5620094 137.390885,64.5006138 138.080881,64.6838722 C138.684316,64.8441479 139.344961,65.1938668 140.065925,65.7784418 C140.463033,66.1003983 140.939534,66.3459555 141.443452,66.5387104 C141.954385,66.7341626 142.499093,66.8761978 143.020834,66.9887898 C143.969387,67.1934751 144.461524,67.6077132 144.626176,68.0530128 C144.732102,68.3395045 144.705216,68.6321809 144.57669,68.8950753 C144.457226,69.1394658 144.248977,69.355266 143.980346,69.5092818 C143.425159,69.8275752 142.595286,69.8924081 141.769811,69.3858509 C141.16266,69.0132499 140.502774,69.1260049 139.903978,69.2283225 C139.028536,69.377935 138.256707,69.5098212 137.689512,68.525159 C137.442887,68.0969331 137.168833,67.8076941 136.870168,67.5977273 C136.566055,67.3839343 136.225349,67.2437557 135.858199,67.1208893 C135.186014,66.8959563 134.87103,66.6334131 134.798121,66.3276899 C134.717577,65.989939 134.921983,65.6904005 135.276164,65.3841127 C135.650961,65.0600109 136.06732,64.8760626 136.214959,64.8109788 Z M120.057213,87.8927845 C119.529076,86.7048546 119.684539,85.6773509 120.142674,84.7519892 C120.076249,84.6884233 120.061915,84.5802597 120.124877,84.4999211 C120.169547,84.4429289 120.244011,84.4170359 120.314746,84.4323283 C120.72888,83.7185015 121.304431,83.0643014 121.853007,82.4409496 C122.86332,81.2929505 124.16187,80.0080974 122.629677,78.7205345 C122.255752,78.4063182 121.741734,78.1072564 121.089066,77.8302613 C118.662913,76.800625 119.705927,75.6465667 117.917704,74.9910619 C116.24911,74.379515 115.864858,75.0840961 115.457056,72.5531164 C115.379875,72.0739701 115.09289,71.6186971 114.918947,71.1642144 C114.641429,70.4389841 114.640102,69.8219676 115.83442,69.3718004 C116.694124,69.0477613 116.925517,68.3986545 117.164115,67.729325 C117.808063,65.9226849 118.963006,64.7230755 120.792107,64.0681603 C121.322949,63.87809 121.788541,63.7113786 122.188392,63.1543275 C123.002136,62.0207051 121.607014,61.2209697 123.124671,59.6670123 C123.676635,59.1018947 121.866292,57.6686585 124.440336,57.0498856 C125.652237,56.7585515 125.821844,57.2996077 125.586103,58.2876446 C125.474514,58.7553874 125.3584,59.3347813 125.671753,59.7548905 C125.960988,60.1426585 126.510791,60.1165522 126.926745,59.9830978 C127.395839,59.8325946 127.875348,59.5019945 128.229453,59.031429 C128.79565,58.2789759 129.565608,57.7348462 130.50396,57.5615989 C131.110227,57.4496843 131.592391,57.1171397 131.859013,56.5539039 C132.040059,56.1714173 132.127669,55.6291819 131.995452,55.2173148 C131.786141,54.565285 130.948014,54.7493211 129.836515,54.9934105 C128.839234,55.2124223 127.654586,55.4725568 126.416026,55.2820474 C124.793632,55.0324758 123.375353,55.2608086 122.097559,55.8487457 C120.880577,56.4086947 119.78503,57.296346 118.758474,58.4097833 C115.367159,62.1383151 113.302127,67.0780605 113.302127,72.4966385 C113.302127,76.5432504 114.454011,80.3227026 116.449648,83.5302251 C116.487784,83.4511787 116.580071,83.400873 116.679019,83.4318342 C116.91878,83.5082211 117.158592,83.5830273 117.399465,83.655864 C117.63556,83.72643 117.531202,84.0882673 117.289621,84.016083 C117.068112,83.9491425 116.847286,83.8807092 116.626814,83.8104694 C117.456675,85.0986094 118.424037,86.2910556 119.508485,87.3673344 C119.688205,87.5457002 119.871135,87.7209046 120.057213,87.8927845 L120.057213,87.8927845 Z M114.062491,63.2355317 C114.294516,63.1408666 114.150404,62.7953002 113.919074,62.8871301 C113.683611,62.9823095 113.449462,63.079584 113.216021,63.1795682 C112.984388,63.280305 113.139838,63.6210667 113.366617,63.5249589 C113.597707,63.4260411 113.829416,63.3297451 114.062491,63.2355317 L114.062491,63.2355317 Z M112.337508,63.9888002 C112.564957,63.8798212 112.396677,63.543764 112.173639,63.649406 C111.943952,63.7582344 111.715896,63.8697601 111.489104,63.9843969 C111.265169,64.0981054 111.440249,64.4306625 111.661644,64.3195509 C111.885542,64.2063317 112.110741,64.0962487 112.337508,63.9888002 L112.337508,63.9888002 Z M110.666891,64.8501319 C110.88668,64.7254841 110.694219,64.4026243 110.479865,64.5227308 C110.258053,64.647504 110.038024,64.7757271 109.820446,64.9076511 C109.610112,65.0359118 109.804077,65.3593613 110.018899,65.2283531 C110.232558,65.0986372 110.448985,64.9727098 110.666891,64.8501319 Z M109.072773,65.8366383 C109.279872,65.6953432 109.061586,65.3875626 108.857256,65.5269759 C108.64682,65.6706545 108.439343,65.8185232 108.235038,65.9706698 C108.034095,66.1234938 108.265273,66.4173244 108.46322,66.2712747 C108.663329,66.1222017 108.866635,65.9773814 109.072773,65.8366383 L109.072773,65.8366383 Z M107.588095,66.9710887 C107.777092,66.8066354 107.524944,66.5255506 107.338904,66.6874196 C107.145495,66.8548712 106.956485,67.025183 106.771898,67.2023695 C106.595844,67.3745882 106.85358,67.6457122 107.036182,67.4722641 C107.215623,67.3001332 107.399666,67.133472 107.588095,66.9710887 Z M106.267778,68.2805678 C106.428613,68.0930567 106.142235,67.8463329 105.979554,68.0359892 C105.811754,68.2317048 105.652765,68.4300172 105.498793,68.6365717 C105.353556,68.836377 105.657012,69.0595537 105.805169,68.8583685 C105.951733,68.6598679 106.107082,68.4679409 106.267778,68.2805678 Z M105.203491,69.7874686 C105.325305,69.5688207 104.991045,69.3909944 104.871354,69.6058663 C104.74552,69.8338227 104.633553,70.0603615 104.529409,70.2988557 C104.430739,70.5282172 104.781128,70.6720966 104.878484,70.4458588 C104.977508,70.2193075 105.083914,70.0040341 105.203491,69.7874686 L105.203491,69.7874686 Z M104.528916,71.4856817 C104.585077,71.2474258 104.220139,71.1546802 104.159997,71.3985939 C104.099437,71.6538233 104.054905,71.9024038 104.024,72.1628268 C103.997986,72.4106922 104.372707,72.4484027 104.40106,72.2029459 C104.430145,71.958568 104.472035,71.7251671 104.528916,71.4856817 Z M104.379445,73.2939402 C104.355491,73.0376445 103.983209,73.0972461 104.00059,73.3064727 C104.020271,73.5753636 104.058862,73.8179727 104.110611,74.082498 C104.163334,74.3192234 104.5286,74.2764949 104.477951,74.0095609 C104.432054,73.7727101 104.398494,73.5344165 104.379445,73.2939402 L104.379445,73.2939402 Z M104.790646,75.0664828 C104.696223,74.8385766 104.345771,74.976058 104.439044,75.2074642 C104.535198,75.4480159 104.63943,75.6795476 104.758742,75.9097496 C104.873465,76.1273814 105.211517,75.9567811 105.094898,75.7355739 C104.981173,75.5164116 104.8822,75.2955432 104.790646,75.0664828 L104.790646,75.0664828 Z M105.670095,76.6798411 C105.523783,76.4749927 105.218659,76.6960995 105.359927,76.8963689 C105.50682,77.1058966 105.663623,77.3106948 105.826708,77.5080664 C105.983536,77.6963427 106.279888,77.4614614 106.118749,77.268004 C105.960733,77.0768171 105.81384,76.8817288 105.670095,76.6798411 L105.670095,76.6798411 Z M106.870088,78.0908098 C106.689066,77.9137487 106.429169,78.1854748 106.602721,78.3577186 C106.783907,78.5379285 106.97001,78.7123802 107.160954,78.8823533 C107.350735,79.047484 107.596627,78.7656465 107.413027,78.6011682 C107.227252,78.4358744 107.046319,78.266102 106.870088,78.0908098 Z M108.277496,79.3138409 C108.07625,79.1608036 107.851304,79.4638422 108.046331,79.6121876 C108.248765,79.7677214 108.454802,79.9170453 108.663354,80.0643495 C108.867254,80.2034617 109.08645,79.9006865 108.88059,79.7558663 C108.676727,79.6118614 108.475393,79.4658871 108.277496,79.3138409 Z M109.819599,80.3748775 C109.603665,80.2431794 109.41018,80.5653994 109.619377,80.6945007 C109.835539,80.8286702 110.053988,80.9588754 110.274498,81.0858817 C110.493352,81.20999 110.67804,80.8837806 110.463951,80.7598605 C110.247056,80.6349367 110.032222,80.5068516 109.819599,80.3748775 L109.819599,80.3748775 Z M111.453218,81.2993109 C111.228891,81.1854017 111.059448,81.5196273 111.279161,81.6336871 C111.505056,81.7502182 111.731924,81.8632116 111.960587,81.9742856 C112.021248,82.0033526 112.083855,81.9977073 112.133784,81.9704218 C112.219662,82.1090197 112.428,82.0822987 112.476703,81.9289854 C112.552039,81.6912564 112.630535,81.454531 112.712242,81.2188845 C112.791269,80.9860355 112.436431,80.8603465 112.353586,81.0966955 C112.288653,81.2839432 112.225768,81.4718306 112.164816,81.6603579 C112.153314,81.650924 112.140522,81.6427321 112.126478,81.6358448 C111.900546,81.5261257 111.676408,81.414437 111.453218,81.2993109 Z M113.151568,82.107301 C112.920769,82.0069279 112.773408,82.3537488 112.999758,82.4521899 C113.232554,82.5537046 113.465945,82.6529988 113.700877,82.7495582 C113.934634,82.8449258 114.073134,82.4945672 113.845204,82.401533 C113.612774,82.3060023 113.381887,82.2077368 113.151568,82.107301 L113.151568,82.107301 Z M118.487567,83.969039 C118.245088,83.9024749 118.14815,84.265642 118.386672,84.3318173 C118.63159,84.398557 118.876547,84.4640423 119.122375,84.5274074 C119.365637,84.5890413 119.457456,84.2264638 119.217025,84.1629732 C118.973283,84.1001601 118.730399,84.0352017 118.487567,83.969039 L118.487567,83.969039 Z M122.163806,84.8290284 C121.917523,84.7827246 121.846952,85.1499438 122.090619,85.198305 C122.339595,85.247306 122.588912,85.2939486 122.838482,85.3398384 C123.085423,85.3832318 123.15095,85.0155736 122.905905,84.969483 C122.658257,84.9239569 122.410861,84.8776406 122.163806,84.8290284 Z M124.023396,85.1616859 C123.778819,85.1237748 123.714404,85.4921105 123.962798,85.5331955 C124.213089,85.5737537 124.463581,85.6124176 124.714327,85.6500403 C124.958133,85.6853296 125.020424,85.3165924 124.770425,85.2778282 C124.521171,85.2404439 124.272182,85.2020058 124.023396,85.1616859 Z M125.893097,85.4343028 C125.6433,85.4033165 125.598895,85.7745375 125.844761,85.8075938 C126.096202,85.8400228 126.347718,85.8714105 126.599526,85.9009793 C126.848881,85.9293311 126.890101,85.5577588 126.643488,85.5271614 C126.393135,85.4977557 126.143097,85.4665436 125.893097,85.4343028 L125.893097,85.4343028 Z M127.771078,85.6495887 C127.5241,85.6268445 127.483588,85.9982537 127.733663,86.0241091 C127.985938,86.0492619 128.23834,86.0727338 128.49088,86.095064 C128.742586,86.1156755 128.770091,85.742786 128.523972,85.7201421 C128.27286,85.6979499 128.021912,85.6746035 127.771078,85.6495887 Z M129.654748,85.8096888 C129.401335,85.7941329 129.382678,86.1675243 129.628127,86.1851125 C129.88111,86.2025752 130.133928,86.2191472 130.387063,86.2343519 C130.640033,86.2472984 130.655644,85.873769 130.409411,85.8586522 C130.157705,85.8435479 129.906302,85.8270512 129.654748,85.8096888 Z M131.542335,85.9162466 C131.293473,85.9060475 131.276636,86.2820482 131.526383,86.2922724 C131.779758,86.3026221 132.032956,86.3122442 132.286406,86.3203483 C132.538567,86.3280886 132.545001,85.9517491 132.298086,85.9441719 C132.046051,85.9360929 131.794282,85.9265586 131.542335,85.9162466 L131.542335,85.9162466 Z M133.432198,85.9705542 C133.180719,85.9679825 133.178432,86.3418003 133.426889,86.3468811 C133.680378,86.3507324 133.933879,86.3531787 134.187392,86.3542576 C134.438707,86.3542576 134.437051,85.9804397 134.188454,85.9779056 C133.936356,85.9768142 133.684271,85.9743804 133.432198,85.9705542 Z M135.322883,85.9736528 C135.072908,85.9787838 135.079064,86.3525264 135.328192,86.3499797 C135.581743,86.3467933 135.835093,86.3422394 136.088606,86.336845 C136.336002,86.3292427 136.330921,85.9554625 136.07905,85.9606185 C135.826952,85.9659752 135.575019,85.9704915 135.322883,85.9736528 Z M139.100864,85.825458 C138.923142,85.8381787 138.868042,86.0578804 138.99265,86.1581908 C139.003825,86.1671856 139.016452,86.175227 139.030559,86.182064 C138.801327,86.3703278 139.07346,86.6351667 139.254722,86.4864575 L139.645269,86.1640744 L139.886016,86.1456206 C140.120253,86.1264392 140.11253,85.7854392 139.883159,85.7703098 C139.826328,85.6636266 139.685933,85.6384988 139.593646,85.715237 L139.495026,85.7978086 L139.100864,85.825458 Z M140.985077,85.6718938 C140.73921,85.6973352 140.771203,86.0695599 141.022492,86.0464142 C141.274919,86.0219513 141.526928,85.9960583 141.779115,85.9692495 C142.029418,85.9407848 141.983647,85.5697393 141.737351,85.5951807 C141.48677,85.6224411 141.235974,85.6475815 140.985077,85.6718938 Z M142.863841,85.4633572 C142.6157,85.4967019 142.6653,85.8672707 142.912178,85.8366482 C143.163732,85.8049468 143.414983,85.771464 143.666146,85.7368145 C143.911747,85.7012743 143.862361,85.3306554 143.613386,85.3641257 C143.363702,85.398587 143.11393,85.431844 142.863841,85.4633572 L142.863841,85.4633572 Z M146.596103,84.87261 C146.348088,84.9218494 146.425421,85.2877513 146.668127,85.2421124 C146.91728,85.1938766 147.166092,85.144725 147.414625,85.0934282 C147.662008,85.0417426 147.578039,84.6746614 147.336786,84.72508 C147.090288,84.7760004 146.843221,84.8247631 146.596103,84.87261 Z M148.443886,84.484428 C148.197919,84.5415708 148.289788,84.9061806 148.530042,84.8509446 C148.777223,84.7941406 149.023798,84.7358688 149.270207,84.6758532 C149.513874,84.6141063 149.419742,84.2520934 149.179223,84.3104906 C148.934418,84.3701048 148.689449,84.4280003 148.443886,84.484428 L148.443886,84.484428 Z M150.276248,84.0288915 C150.033757,84.0954557 150.135764,84.4554112 150.375879,84.392021 C150.620747,84.3255949 150.865488,84.2581401 151.109345,84.1881386 C151.346047,84.1199185 151.245961,83.7568769 151.003394,83.8267654 C150.76156,83.89624 150.519094,83.9630174 150.276248,84.0288915 L150.276248,84.0288915 Z M153.872146,82.8937512 C153.635798,82.981391 153.773792,83.3319629 154.00492,83.2462676 C154.243114,83.1584396 154.480701,83.0691061 154.717036,82.9764483 C154.947431,82.8849571 154.809993,82.5342096 154.577083,82.6266667 C154.343136,82.7183837 154.107926,82.8068139 153.872146,82.8937512 Z M155.622663,82.198328 C155.390916,82.2991025 155.548995,82.6412441 155.774473,82.5431919 C155.992973,82.4490035 156.209741,82.3527703 156.426446,82.254555 L156.481861,82.4414263 C156.554884,82.6821159 156.914652,82.5710419 156.845826,82.3357717 C156.77499,82.0931 156.700197,81.8511182 156.622004,81.6107296 C156.545189,81.3769147 156.183538,81.4901088 156.261402,81.7271478 L156.314213,81.8915133 L156.311167,81.8928807 C156.082731,81.9973937 155.853373,82.0988707 155.622663,82.198328 L155.622663,82.198328 Z M157.328167,81.4031339 C157.104004,81.5169678 157.279578,81.849249 157.500581,81.738338 C157.727436,81.6227603 157.952294,81.5052883 158.176141,81.3840528 C158.396019,81.2633944 158.211496,80.9371599 157.993666,81.0541427 C157.773143,81.1735466 157.551635,81.2892623 157.328167,81.4031339 Z M158.970583,80.4938423 C158.757329,80.6238971 158.955352,80.9423159 159.168985,80.8145695 C159.386803,80.6827083 159.60165,80.5467574 159.814702,80.4074696 C160.023912,80.2690473 159.813059,79.9587576 159.605151,80.0937927 C159.395803,80.230697 159.184621,80.3642644 158.970583,80.4938423 Z M160.525428,79.4508204 C160.324662,79.6034939 160.557673,79.897889 160.754546,79.7506977 C160.959116,79.5978361 161.158656,79.4415371 161.356679,79.2804333 C161.551516,79.1205841 161.305119,78.8344311 161.115224,78.9902409 C160.921271,79.1480453 160.725789,79.3011076 160.525428,79.4508204 L160.525428,79.4508204 Z M161.951986,78.2492791 C161.77592,78.4214977 162.036335,78.6926343 162.217129,78.5183456 C162.401665,78.3407326 162.58007,78.1590173 162.753709,77.9708915 C162.924644,77.7829915 162.636509,77.5381118 162.472968,77.7179077 C162.304423,77.9005262 162.131112,78.0768722 161.951986,78.2492791 Z M163.18195,76.8631872 C163.038318,77.0642846 163.342899,77.2850025 163.489842,77.0828764 C163.642613,76.8742018 163.783931,76.6661669 163.920838,76.4469043 C164.04915,76.2355074 163.728693,76.0383742 163.597398,76.2504485 C163.465446,76.4617953 163.329197,76.6620647 163.18195,76.8631872 L163.18195,76.8631872 Z M164.107674,75.2747183 C164.013883,75.5011568 164.358117,75.6509951 164.457482,75.4200404 C164.560108,75.1808311 164.646303,74.9432526 164.723699,74.6949481 C164.795218,74.4592263 164.433036,74.3476254 164.36067,74.5861573 C164.287116,74.8221425 164.205207,75.0473767 164.107674,75.2747183 L164.107674,75.2747183 Z M164.583607,73.5176187 C164.560172,73.7683193 164.935411,73.7980511 164.960919,73.5551786 C164.988892,73.2965119 165.002784,73.042399 164.999536,72.7821893 C164.994315,72.5314385 164.617849,72.5430176 164.620377,72.7880604 C164.62331,73.0325386 164.609861,73.2748466 164.583607,73.5176187 L164.583607,73.5176187 Z M164.503265,71.7014193 C164.555495,71.947566 164.923176,71.866136 164.87494,71.6268012 C164.821914,71.3706937 164.756109,71.1257136 164.67492,70.8770077 C164.595843,70.6441461 164.235139,70.7603135 164.315405,70.9967378 C164.391689,71.2303896 164.453399,71.46083 164.503265,71.7014193 L164.503265,71.7014193 Z M163.886191,69.9838993 C164.002912,70.2052821 164.335832,70.0298393 164.222802,69.8106017 C164.102467,69.5810647 163.975141,69.3625672 163.835794,69.1436433 C163.700568,68.9359973 163.382994,69.137722 163.516551,69.3467479 C163.649818,69.5561627 163.771038,69.7641348 163.886191,69.9838993 L163.886191,69.9838993 Z M162.86124,68.4523976 C163.018701,68.6414392 163.31418,68.405479 163.153686,68.2128119 C162.989097,68.0151142 162.821196,67.8251694 162.644763,67.6377461 C162.470971,67.4575487 162.200039,67.7156886 162.369457,67.8965508 C162.540177,68.0779901 162.702011,68.2610351 162.86124,68.4523976 L162.86124,68.4523976 Z M161.566167,67.1198606 C161.756719,67.2856688 162.001814,67.0031664 161.818821,66.8392024 C161.628395,66.6697813 161.432559,66.5048764 161.233702,66.3453659 C161.036285,66.1881134 160.804854,66.4843276 160.995912,66.6385441 C161.189802,66.7938896 161.380569,66.954755 161.566167,67.1198606 L161.566167,67.1198606 Z M160.097971,65.9657271 C160.171222,66.0166224 160.269272,66.010262 160.335267,65.9504597 C160.424344,65.8684652 160.415192,65.7275841 160.316092,65.6578711 C160.107464,65.511696 159.89603,65.3698991 159.681992,65.2316399 C159.617311,65.1909312 159.538499,65.1914832 159.474312,65.2328443 C159.360385,65.3087168 159.361649,65.4733708 159.476258,65.5478007 C159.68615,65.682196 159.893906,65.8227509 160.097971,65.9657271 L160.097971,65.9657271 Z M158.514509,64.9623099 C158.590401,65.005352 158.682966,64.9927192 158.744689,64.9314616 C158.831275,64.8428809 158.812036,64.698851 158.704493,64.6365898 C158.484134,64.5096839 158.261463,64.3866921 158.0373,64.2665605 C157.892,64.1894209 157.72329,64.3200652 157.763739,64.478798 C157.777327,64.5303707 157.810293,64.5725723 157.857631,64.5980012 C158.078343,64.7162133 158.297576,64.8373861 158.514509,64.9623099 L158.514509,64.9623099 Z M156.852273,64.0870657 C157.078357,64.1953924 157.240544,63.8577168 157.017608,63.748374 C156.809207,63.6478755 156.599795,63.5497856 156.389195,63.4539664 L156.423691,63.3483871 C156.498496,63.1103319 156.139398,62.9996844 156.062229,63.2346034 C155.984731,63.4717302 155.905477,63.7077405 155.82219,63.9429354 C155.741241,64.1739654 156.096408,64.3034556 156.180239,64.0668807 C156.210133,63.9824524 156.239522,63.897861 156.26862,63.8131567 C156.464152,63.9024023 156.658661,63.9937053 156.852273,64.0870657 Z M141.783096,50.9435243 C141.548657,51.0365962 141.69153,51.3826644 141.922114,51.2936822 C142.156149,51.2024294 142.390804,51.113648 142.626937,51.0278773 C142.863614,50.9401121 142.728565,50.5909954 142.496135,50.6746334 C142.257246,50.7614076 142.019887,50.8512554 141.783096,50.9435243 Z M113.3797,79.4698638 C113.479432,79.2291115 113.112194,79.1100588 113.023787,79.3235633 C112.929592,79.5572653 112.837735,79.7947811 112.746207,80.0296247 C112.688263,80.1791619 112.833892,80.3281095 112.986284,80.2747302 C113.038893,80.2563015 113.07986,80.2165086 113.100059,80.1649609 L113.378335,79.4731757 L113.3797,79.4698638 L113.3797,79.4698638 Z M112.161606,83.0050887 C112.225793,82.7656033 111.859073,82.6696587 111.795062,82.908592 C111.729396,83.1530201 111.667661,83.3986023 111.610084,83.6450376 C111.555365,83.8907076 111.923513,83.9674333 111.979687,83.7292652 C112.036201,83.4869447 112.097039,83.2454145 112.161606,83.0050887 Z M111.754272,84.8253653 C111.795884,84.5774998 111.423589,84.5204574 111.380625,84.7611847 C111.336687,85.0110197 111.297642,85.26093 111.263513,85.5122704 C111.243554,85.670702 111.415879,85.7808352 111.552697,85.696181 C111.60068,85.6654833 111.631725,85.6181758 111.63941,85.5618736 C111.672831,85.3154257 111.711181,85.0703328 111.754272,84.8253653 Z M111.528061,86.6718109 C111.543609,86.4221515 111.164805,86.4040364 111.149561,86.6488785 C111.133469,86.9029035 111.123749,87.1560253 111.120551,87.4105396 C111.11796,87.6609266 111.497169,87.6593836 111.499735,87.4143283 C111.502819,87.166237 111.512375,86.9194254 111.528061,86.6718109 L111.528061,86.6718109 Z M111.537112,88.5253068 C111.516293,88.2749449 111.138917,88.3119905 111.159142,88.5556157 C111.180327,88.8102178 111.209994,89.0639041 111.247725,89.3165994 C111.285671,89.5576152 111.659129,89.5085766 111.622535,89.2594692 C111.585651,89.0171361 111.555782,88.7697976 111.537112,88.5253068 L111.537112,88.5253068 Z M111.855192,90.3403897 C111.784407,90.098408 111.424057,90.2077633 111.490216,90.4425568 C111.561356,90.6910243 111.64104,90.932404 111.734275,91.173608 C111.825905,91.4074605 112.176433,91.2661278 112.087951,91.0378453 C111.999001,90.8078315 111.922995,90.5773535 111.855192,90.3403897 Z M112.564464,92.0284037 C112.437644,91.8126035 112.112498,92.0063495 112.237232,92.2185869 C112.370714,92.4441597 112.510389,92.6543774 112.667344,92.8645575 C112.817536,93.0591189 113.120776,92.8390283 112.969978,92.6377678 C112.822187,92.4398192 112.690197,92.2409799 112.564464,92.0284037 Z M113.706414,93.4524318 C113.521651,93.2819695 113.267606,93.5614234 113.448451,93.7282978 L113.456111,93.7354485 C113.647232,93.9090722 113.842095,94.0699251 114.051254,94.2217455 C114.259035,94.3679206 114.471379,94.0584714 114.272964,93.9164237 C114.077128,93.7743131 113.883062,93.6173242 113.706414,93.4524318 Z M115.217586,94.4832976 C114.990769,94.3746197 114.82896,94.7124959 115.051392,94.8215878 C115.285047,94.9364756 115.520852,95.0352052 115.764645,95.1266713 C116.003054,95.212467 116.127422,94.8594363 115.896635,94.7738539 C115.66437,94.6866907 115.440194,94.5927533 115.217586,94.4832976 L115.217586,94.4832976 Z M116.961112,95.0833281 C116.715372,95.0319811 116.639,95.3980838 116.881959,95.4514004 C117.135789,95.5065108 117.386104,95.5500297 117.64322,95.5869122 C117.893561,95.6179737 117.937992,95.2467527 117.692416,95.2137466 C117.445349,95.1782064 117.205045,95.1362934 116.961112,95.0833281 Z M118.806608,95.3087128 C118.554484,95.3009725 118.548013,95.6773119 118.794953,95.6848891 C119.051652,95.6937459 119.307302,95.6948625 119.56409,95.6891168 C119.815569,95.6814016 119.802524,95.3078221 119.554054,95.3128903 C119.304547,95.3185356 119.056026,95.3173187 118.806608,95.3087128 Z M120.675121,95.2428135 C120.429546,95.2681922 120.461702,95.6404294 120.713219,95.6172587 C120.968224,95.5908513 121.220992,95.5601912 121.474708,95.5234718 C121.724367,95.4847577 121.662973,95.1159076 121.418788,95.1512345 C121.171025,95.1871009 120.924135,95.2170209 120.675121,95.2428135 Z M122.527139,94.9557573 C122.284205,95.0090739 122.360869,95.3751138 122.606166,95.3238547 C122.855787,95.2718554 123.104409,95.2164689 123.352083,95.1559389 C123.596786,95.0939287 123.500265,94.7325053 123.260415,94.7907521 C123.016925,94.8502408 122.772538,94.9046362 122.527139,94.9557573 Z M124.349541,94.4976742 C124.107138,94.5701094 124.223542,94.9283714 124.458702,94.858094 C124.703115,94.7858971 124.945518,94.7103507 125.187984,94.6319942 C125.279904,94.6012588 125.326142,94.5140079 125.31622,94.4307463 C125.399178,94.5918249 125.619094,94.575554 125.671652,94.4094322 C125.685506,94.3615728 125.681815,94.3136632 125.658848,94.2691157 C125.544503,94.0471558 125.433522,93.8236654 125.325106,93.5987951 C125.217689,93.3779643 124.874669,93.5358691 124.983237,93.7616552 C125.072818,93.9474476 125.164119,94.1323368 125.257619,94.3161973 C125.206388,94.2686013 125.134756,94.2533716 125.068053,94.2749617 C124.829164,94.3521264 124.590338,94.4265437 124.349541,94.4976742 Z M126.134793,93.903703 C125.903298,93.9895363 126.032179,94.3435079 126.268148,94.2560186 C126.506468,94.1678017 126.743182,94.076574 126.979442,93.9830631 C127.213275,93.8902421 127.067962,93.5425681 126.838225,93.6337833 C126.604556,93.7262279 126.370496,93.816452 126.134793,93.903703 Z M129.586692,92.399838 C129.366473,92.5116522 129.531138,92.8469066 129.757387,92.7359204 C129.984419,92.6229019 130.210162,92.5073492 130.434995,92.3901031 C130.65347,92.2741114 130.480968,91.9414789 130.258006,92.0572574 C130.035284,92.1734623 129.811614,92.2878733 129.586692,92.399838 Z M131.253467,91.5207174 C131.033804,91.6452899 131.222662,91.9676856 131.4389,91.8489967 C131.660307,91.7253651 131.880653,91.6006295 132.100265,91.4738867 C132.318171,91.347746 132.122348,91.0254256 131.909043,91.1488942 C131.691352,91.274533 131.472927,91.3981647 131.253467,91.5207174 L131.253467,91.5207174 Z M132.881094,90.5710684 C132.666209,90.7036949 132.870337,91.0193287 133.080077,90.8914443 C133.2961,90.7589559 133.511415,90.62579 133.725567,90.4903409 C133.937886,90.3541391 133.729725,90.0420555 133.521224,90.173302 C133.308867,90.3076346 133.095322,90.4396965 132.881094,90.5710684 L132.881094,90.5710684 Z M134.47027,89.5585812 C134.261363,89.6985214 134.475894,90.0072053 134.681843,89.8709032 C134.892607,89.7307873 135.102347,89.5895173 135.311254,89.4466917 C135.518289,89.3054343 135.300016,88.9976536 135.095686,89.1370795 C134.888069,89.2789642 134.679694,89.4193435 134.47027,89.5585812 L134.47027,89.5585812 Z M136.021992,88.4888257 C135.821808,88.6339973 136.040586,88.9395951 136.24436,88.7936709 C136.450043,88.6463541 136.654664,88.4978707 136.858476,88.3480199 C137.061226,88.1983824 136.830099,87.8999729 136.632316,88.0459347 C136.429755,88.1948321 136.226398,88.3424248 136.021992,88.4888257 Z M140.452566,84.9808614 C140.263897,85.1450386 140.516627,85.4256341 140.7034,85.2631254 C140.893864,85.0968907 141.083216,84.9297904 141.272112,84.761812 C141.459606,84.593821 141.200897,84.3185822 141.017967,84.4824835 C140.83017,84.649496 140.641918,84.8156052 140.452566,84.9808614 L140.452566,84.9808614 Z M141.854792,83.7225285 C141.670901,83.8921754 141.932075,84.1650306 142.113817,83.9973909 C142.299237,83.8257618 142.483925,83.6533926 142.667335,83.479656 C142.849735,83.3063835 142.583404,83.0384084 142.405125,83.2077793 C142.222751,83.3804872 142.039138,83.5518905 141.854792,83.7225285 Z M143.219236,82.4238632 C143.044661,82.5946141 143.305405,82.8679711 143.486174,82.6911735 C143.666513,82.514288 143.845727,82.3363237 144.024397,82.1577823 C144.197721,81.9832177 143.931339,81.7153053 143.75435,81.8935581 C143.576665,82.0711085 143.398576,82.2479563 143.219236,82.4238632 Z M144.545468,81.0867724 C144.37179,81.2668693 144.648689,81.5240683 144.820091,81.3463047 C144.995197,81.1643009 145.169229,80.9813562 145.342641,80.7977717 C145.514701,80.6140743 145.232873,80.362207 145.065009,80.5414258 C144.892545,80.7239941 144.719601,80.9057721 144.545468,81.0867724 L144.545468,81.0867724 Z M145.832225,79.7122345 C145.663767,79.8974373 145.948402,80.1461433 146.114331,79.963738 C146.284052,79.7767789 146.452989,79.5891674 146.620499,79.4002638 C146.787199,79.2115484 146.497736,78.9683121 146.33546,79.1520471 C146.168912,79.3398468 146.00096,79.5263668 145.832225,79.7122345 Z M152.585504,70.6960953 C152.458077,70.912874 152.787015,71.0976628 152.912407,70.8868054 C153.041376,70.6698886 153.168916,70.4525203 153.294915,70.2338848 C153.417551,70.0208696 153.090344,69.8306237 152.965408,70.0476157 C152.840281,70.2647582 152.7136,70.4806588 152.585504,70.6960953 Z M153.514679,69.0642079 C153.398047,69.2805978 153.728818,69.4622629 153.848711,69.242373 C153.96863,69.0200367 154.086981,68.7973744 154.203613,68.5733195 C154.318007,68.3514223 153.981624,68.1826034 153.866395,68.4012012 C153.7508,68.6232238 153.633536,68.8438915 153.514679,69.0642079 Z M156.3851,62.1599679 C156.320129,62.4024138 156.684334,62.4955233 156.750885,62.2592244 C156.817739,62.0147086 156.881383,61.7706819 156.941462,61.5244348 C156.997686,61.2859907 156.632749,61.1931447 156.572644,61.4369204 C156.513563,61.6792284 156.450867,61.919366 156.3851,62.1599679 L156.3851,62.1599679 Z M156.807399,60.3434423 C156.764321,60.5848093 157.1363,60.6558395 157.180693,60.40963 C157.226375,60.1601714 157.268593,59.9109511 157.304896,59.6599494 C157.338077,59.4167131 156.965744,59.3601474 156.929353,59.6077619 C156.893783,59.8540592 156.852222,60.0986629 156.807399,60.3434423 Z M157.052937,58.4985397 C157.035253,58.7420771 157.412971,58.7756351 157.431185,58.5251603 C157.450158,58.2717123 157.463924,58.0177124 157.469713,57.7636121 C157.472329,57.5118577 157.095636,57.5123595 157.090555,57.7567625 C157.085006,58.0040006 157.071392,58.2520793 157.052937,58.4985397 Z M157.06937,56.6454577 C157.087508,56.8949164 157.465377,56.8626756 157.447567,56.617959 C157.429871,56.3626167 157.405791,56.1107494 157.3717,55.8570129 C157.335852,55.6129235 156.962382,55.6617364 156.996056,55.9085731 C157.029148,56.1542306 157.052242,56.3982447 157.06937,56.6454577 Z M156.78447,54.8233496 C156.849378,55.0655823 157.214366,54.9633023 157.150963,54.7266522 C157.085751,54.4776452 157.01082,54.2333802 156.923399,53.9911475 C156.836245,53.7596785 156.481786,53.8865091 156.567171,54.1202111 C156.650837,54.3516049 156.722166,54.5854575 156.78447,54.8233496 L156.78447,54.8233496 Z M156.11595,53.1179983 C156.241392,53.3358559 156.566488,53.1489094 156.446772,52.9340626 C156.319939,52.7059933 156.185977,52.4920246 156.035646,52.2784699 C155.889487,52.0738348 155.583832,52.2967105 155.726263,52.4960767 C155.868896,52.698692 155.995627,52.901621 156.11595,53.1179983 L156.11595,53.1179983 Z M155.01383,51.6613405 C155.188469,51.8321416 155.460045,51.5693726 155.279276,51.392575 C155.090367,51.2093794 154.899512,51.0439727 154.691389,50.8826055 C154.489827,50.7293299 154.265803,51.0331086 154.460426,51.1811028 C154.65635,51.3330486 154.835994,51.4888584 155.01383,51.6613405 Z M153.531743,50.588938 C153.756109,50.7054566 153.926247,50.3690105 153.708177,50.2557912 C153.473573,50.1340288 153.244682,50.0298922 153.000952,49.932392 C152.770848,49.8435854 152.62752,50.189478 152.862035,50.2825749 C153.09243,50.3747561 153.311613,50.4746776 153.531743,50.588938 Z M151.803891,49.9494658 C152.049922,50.0066086 152.131957,49.6416726 151.892095,49.5834259 C151.639264,49.523611 151.390402,49.4747856 151.133791,49.4334119 C150.88843,49.3953753 150.82739,49.7668222 151.075064,49.8052226 C151.321904,49.8443758 151.560869,49.8918839 151.803891,49.9494658 L151.803891,49.9494658 Z M149.963717,49.6921038 C150.215171,49.7049625 150.229871,49.3288488 149.982804,49.3162285 C149.726762,49.3031816 149.468812,49.2981259 149.212454,49.3010364 C148.96248,49.3061673 148.968635,49.67991 149.217763,49.6773633 C149.455805,49.668105 149.72479,49.679935 149.963717,49.6921038 L149.963717,49.6921038 Z M148.096569,49.7336907 C148.348717,49.7104823 148.30684,49.3363633 148.061909,49.3589193 C147.807346,49.3815757 147.552935,49.4099401 147.299725,49.4443889 C147.053593,49.4799918 147.103156,49.8505981 147.351651,49.8172032 C147.599135,49.7835322 147.84777,49.7558327 148.096569,49.7336907 L148.096569,49.7336907 Z M146.241416,50.0021802 C146.488117,49.9532168 146.409343,49.5850316 146.166459,49.6332549 C145.916358,49.682833 145.666953,49.7363377 145.418824,49.7948729 C145.29883,49.8240151 145.23846,49.954534 145.294254,50.0639521 C145.334677,50.1413928 145.421529,50.1807717 145.507028,50.1609129 C145.750783,50.1034189 145.99574,50.0508801 146.241416,50.0021802 L146.241416,50.0021802 Z M144.415576,50.4457612 C144.478285,50.4276963 144.526786,50.3794229 144.545,50.317237 C144.586157,50.1750763 144.453169,50.0430269 144.310055,50.0842625 C144.065364,50.1541762 143.821963,50.228305 143.579434,50.3052815 C143.556353,50.3127584 143.536217,50.3236475 143.519114,50.3370456 C143.354234,50.2395705 143.166033,50.4200187 143.253403,50.5857767 C143.369049,50.8071093 143.480713,51.0296964 143.590772,51.2537889 C143.703056,51.4792614 144.039136,51.3098277 143.931934,51.0894736 C143.860895,50.9448165 143.789427,50.8005984 143.716202,50.6570075 C143.948442,50.5835436 144.181327,50.5126891 144.415576,50.4457612 L144.415576,50.4457612 Z M126.194467,95.2557977 C126.110877,95.1106136 125.891707,95.1377737 125.846859,95.2991158 C125.833498,95.3471759 125.839996,95.3987111 125.864935,95.4420166 C125.990643,95.6619693 126.120231,95.8800276 126.253245,96.095715 C126.33614,96.2295959 126.538018,96.2095113 126.593016,96.06163 C126.612709,96.0062686 126.606983,95.9491886 126.576432,95.8988578 C126.445579,95.6866956 126.318127,95.4721624 126.194467,95.2557977 L126.194467,95.2557977 Z M127.190169,96.8374671 C127.105023,96.7145506 126.914838,96.734999 126.858386,96.8734213 C126.834749,96.9331483 126.841157,96.9979687 126.877953,97.0510845 C127.0218,97.2599473 127.172396,97.4660377 127.325281,97.6684774 C127.41782,97.7883455 127.605263,97.7595671 127.656039,97.6167917 C127.676479,97.5566381 127.666518,97.4932103 127.628319,97.4422146 C127.478544,97.2439398 127.33107,97.0420395 127.190169,96.8374671 L127.190169,96.8374671 Z M128.333192,98.3113368 C128.235887,98.2011786 128.057052,98.2370073 128.009816,98.3760192 C127.989553,98.4400617 128.002421,98.5069646 128.046814,98.558023 C128.21431,98.7502636 128.386939,98.9385901 128.56456,99.1216728 C128.626005,99.1844483 128.72154,99.1971188 128.797496,99.1528348 C128.903017,99.0899965 128.922217,98.9482624 128.837186,98.8600831 C128.664267,98.6819682 128.496202,98.4984214 128.333192,98.3113368 L128.333192,98.3113368 Z M129.648276,99.6259218 C129.455827,99.4633001 129.214562,99.7515982 129.401436,99.9116231 C129.596135,100.077996 129.796079,100.239953 130.002141,100.39235 C130.20431,100.541549 130.426551,100.236528 130.228048,100.090064 C130.028824,99.9420951 129.837084,99.7866115 129.648276,99.6259218 L129.648276,99.6259218 Z M131.158058,100.698813 C130.939419,100.574831 130.755679,100.904101 130.9704,101.025863 C131.197104,101.15356 131.423656,101.269288 131.6608,101.376749 C131.890133,101.480208 132.042335,101.135445 131.817236,101.033917 C131.590116,100.930157 131.376305,100.821843 131.158058,100.698813 L131.158058,100.698813 Z M132.856597,101.407183 C132.612955,101.342865 132.520138,101.707788 132.758736,101.770789 C133.013817,101.838232 133.260834,101.890319 133.521679,101.930601 C133.766584,101.966066 133.825829,101.59428 133.576917,101.558263 C133.330709,101.520264 133.097331,101.470875 132.856597,101.407183 L132.856597,101.407183 Z M134.675472,101.623774 C134.423399,101.634086 134.444496,102.009911 134.691222,101.9998 C134.954418,101.990742 135.206238,101.967571 135.466805,101.929924 C135.710522,101.892113 135.659822,101.521657 135.40962,101.557862 C135.162819,101.593565 134.924764,101.615193 134.675472,101.623774 Z M136.482566,101.30055 C136.244019,101.380324 136.367287,101.733719 136.60275,101.657507 C136.850336,101.573895 137.089528,101.482178 137.327671,101.374629 C137.555866,101.269112 137.394551,100.931035 137.168681,101.032951 C136.94333,101.134679 136.716842,101.221441 136.482566,101.30055 L136.482566,101.30055 Z M138.14594,100.507664 C137.933305,100.641495 138.140429,100.956778 138.349424,100.825255 C138.567406,100.68938 138.779876,100.542239 138.985976,100.389226 C139.18223,100.239953 138.960089,99.9393602 138.757465,100.088897 C138.559265,100.235938 138.355403,100.377095 138.14594,100.507664 Z M139.615678,99.3774291 C139.429815,99.5489076 139.69334,99.8196176 139.873186,99.6536965 C140.0614,99.4795961 140.245253,99.3026479 140.423152,99.1179218 C140.596729,98.935366 140.318693,98.6819808 140.148074,98.8588662 C139.973929,99.0371316 139.798697,99.208146 139.615678,99.3774291 L139.615678,99.3774291 Z M140.894067,98.0252591 C140.738439,98.2151663 141.0266,98.4567843 141.187599,98.263515 C141.349951,98.0678621 141.508701,97.8677432 141.661598,97.664739 C141.812017,97.4639677 141.504631,97.2435635 141.357118,97.4404081 C141.206143,97.63857 141.053221,97.8334576 140.894067,98.0252591 L140.894067,98.0252591 Z M142.005831,96.5258602 C141.867761,96.735275 142.185045,96.9375266 142.322394,96.7330796 C142.462714,96.521068 142.598926,96.3085671 142.73285,96.0925285 C142.861288,95.8809685 142.540402,95.6844751 142.409334,95.8961982 C142.277648,96.1085737 142.143774,96.3174365 142.005831,96.5258602 Z M142.974532,94.9268911 C142.905491,95.0535085 142.997108,95.2054418 143.14237,95.2054418 C143.211614,95.2046891 143.273665,95.1677313 143.307174,95.1075903 C143.427409,94.888453 143.544976,94.6688266 143.659598,94.4467413 C143.875849,94.4519976 143.92713,94.1457224 143.721928,94.0793464 C143.482912,94.0019183 143.245389,93.9217302 143.008358,93.8384812 C142.771277,93.7566497 142.648097,94.1091661 142.882309,94.1934313 C143.018546,94.2412782 143.15496,94.288134 143.291703,94.3340364 C143.188899,94.5332019 143.082367,94.7303852 142.974532,94.9268911 L142.974532,94.9268911 Z M143.820231,93.2582217 C143.716328,93.4850615 144.059992,93.6386257 144.165084,93.4147339 C144.271376,93.1853725 144.375241,92.9554465 144.476376,92.7238018 C144.575097,92.4943149 144.227855,92.3490054 144.128111,92.574917 C144.028063,92.8040024 143.925348,93.0313943 143.820231,93.2582217 L143.820231,93.2582217 Z M145.204407,89.778007 C145.125822,90.0171912 145.485489,90.1286917 145.564149,89.8970596 C145.644933,89.6580636 145.72367,89.4184403 145.800005,89.1780015 C145.875113,88.9389302 145.512274,88.8320337 145.438088,89.0656228 C145.362486,89.3038411 145.284432,89.5412314 145.204407,89.778007 L145.204407,89.778007 Z M145.764308,87.9889676 C145.69624,88.2306232 146.060091,88.3276342 146.128956,88.0922636 C146.198427,87.849755 146.266646,87.6072714 146.332515,87.3637716 C146.397473,87.1213884 146.029502,87.030261 145.966098,87.2668234 C145.900824,87.5081904 145.833185,87.7485916 145.764308,87.9889676 L145.764308,87.9889676 Z M146.24646,86.1772342 C146.188656,86.422302 146.55664,86.5026281 146.615101,86.2655013 C146.675067,86.0206341 146.732454,85.7752902 146.788956,85.5296327 C146.843676,85.2839502 146.471988,85.2091439 146.418899,85.4474626 C146.362852,85.6911254 146.30592,85.9343617 146.24646,86.1772342 Z M146.656751,84.347762 C146.607277,84.5932941 146.980166,84.6620285 147.028603,84.4215772 C147.07876,84.1747781 147.127577,83.9279163 147.174586,83.680515 C147.220255,83.4413433 146.84906,83.364003 146.801824,83.6113917 C146.75513,83.8572374 146.706579,84.1025311 146.656751,84.347762 Z M146.999707,82.5037627 C146.961306,82.7477768 147.332703,82.8101258 147.373911,82.5647568 C147.415396,82.3164147 147.455403,82.0679973 147.493817,81.8191659 C147.530322,81.5706607 147.156965,81.5209948 147.11888,81.7627633 C147.080719,82.0100642 147.040927,82.2569511 146.999707,82.5037627 Z M147.278906,80.6489997 C147.247584,80.8977057 147.621774,80.9405471 147.654955,80.6974739 C147.687984,80.4479274 147.719964,80.1983308 147.749972,79.9484079 C147.778021,79.7053096 147.404753,79.6552925 147.373367,79.90445 C147.343511,80.1528674 147.311746,80.4009461 147.278906,80.6489997 L147.278906,80.6489997 Z M147.806095,73.1674984 C147.803504,73.4171954 148.18275,73.4164427 148.185278,73.1707602 C148.187832,72.9191438 148.189108,72.6675274 148.188717,72.4158984 C148.1861,72.1645706 147.809508,72.1726496 147.809508,72.4169773 C147.8099,72.6671636 147.808636,72.9173247 147.806095,73.1674984 L147.806095,73.1674984 Z M147.798321,71.2912709 C147.803529,71.5419087 148.182536,71.5283726 148.177454,71.2836435 C148.172689,71.0320521 148.166685,70.7804985 148.158911,70.5289824 C148.151124,70.2791725 147.77227,70.2954811 147.779904,70.5409755 C147.787577,70.7910489 147.793581,71.0411348 147.798321,71.2912709 L147.798321,71.2912709 Z M147.735663,69.416072 C147.748594,69.6649912 148.124668,69.6441664 148.114417,69.3975303 C148.102308,69.1461648 148.088631,68.8949248 148.073513,68.6437224 C148.058104,68.3966097 147.679654,68.4203073 147.695012,68.6666548 C147.710016,68.916402 147.72363,69.1661742 147.735663,69.416072 Z M147.617059,67.5435828 C147.633694,67.7435135 147.914258,67.7823154 147.984032,67.5938132 C148.054034,67.6779028 148.123783,67.7622057 148.19328,67.8466967 C148.350892,68.0359139 148.6456,67.8021868 148.486661,67.6082401 C148.402982,67.5065121 148.024418,67.026425 147.95113,66.9842986 L147.93131,66.7617993 C147.90814,66.5139214 147.533204,66.5494615 147.553643,66.7957463 C147.576029,67.0450168 147.59705,67.2941116 147.617059,67.5435828 Z M147.441043,65.6761869 C147.469395,65.9218319 147.843826,65.8814869 147.817901,65.6344369 C147.790156,65.3842758 147.761247,65.1343153 147.73043,64.8845054 C147.699044,64.63526 147.323526,64.6882253 147.354103,64.9307214 C147.384705,65.179051 147.413462,65.4275061 147.441043,65.6761869 Z M147.205668,63.8147751 C147.241188,64.0565436 147.615113,64.0109172 147.58111,63.7617847 C147.545035,63.5124766 147.508226,63.2632814 147.469004,63.0144374 C147.430185,62.7679143 147.05621,62.8301379 147.094446,63.0731484 C147.132721,63.3202234 147.169884,63.5673362 147.205668,63.8147751 L147.205668,63.8147751 Z M146.908634,61.9628096 C146.953242,62.2101607 147.32493,62.1377129 147.282028,61.8971989 C147.237459,61.649183 147.192055,61.401443 147.144224,61.1540166 C147.094611,60.9078448 146.725931,60.9846331 146.771917,61.2254733 C146.819368,61.4709552 146.864406,61.7167381 146.908634,61.9628096 L146.908634,61.9628096 Z M146.116593,58.2976305 C146.1791,58.5406284 146.544948,58.4413718 146.483996,58.2044206 C146.420833,57.960256 146.356721,57.7166433 146.290006,57.473407 C146.222342,57.2331941 145.860286,57.3341192 145.924271,57.5728894 C145.990456,57.8140181 146.053986,58.0555609 146.116593,58.2976305 L146.116593,58.2976305 Z M145.612928,56.4918309 C145.684573,56.7280294 146.048285,56.6214465 145.976059,56.3833662 C145.903364,56.1418862 145.827838,55.9011715 145.75067,55.6610589 C145.672439,55.4229912 145.315173,55.5418557 145.389612,55.7761223 C145.466137,56.0142025 145.54012,56.252609 145.612928,56.4918309 Z M144.359264,52.9618122 C144.45868,53.1929175 144.803419,53.0441957 144.709425,52.8173684 C144.612348,52.5841054 144.513273,52.3520718 144.41114,52.120929 C144.312571,51.8977146 143.962435,52.0423969 144.064189,52.2728497 C144.165235,52.5014961 144.263236,52.7310583 144.359264,52.9618122 L144.359264,52.9618122 Z M142.711918,49.602808 C142.839509,49.8198753 143.163644,49.6244231 143.039681,49.4135531 C142.912102,49.1946041 142.781629,48.9771353 142.646845,48.7624767 C142.511481,48.5506533 142.195018,48.7540966 142.325555,48.9623698 C142.458113,49.1736538 142.586374,49.387359 142.711918,49.602808 L142.711918,49.602808 Z M141.704676,48.0284774 C141.848788,48.2302272 142.157742,48.0145524 142.014768,47.8118492 C141.868734,47.604542 141.716975,47.3983513 141.561727,47.1977431 C141.406668,47.0002587 141.111252,47.2330449 141.261773,47.4279953 C141.412622,47.6251786 141.56174,47.825561 141.704676,48.0284774 L141.704676,48.0284774 Z M140.548506,46.5658105 C140.713904,46.7476387 140.998172,46.5039508 140.831396,46.31516 C140.661435,46.1247761 140.48734,45.9382686 140.307279,45.7572308 C140.189244,45.6400849 139.987024,45.7203232 139.983308,45.8861188 C139.982158,45.9376037 140.002117,45.986103 140.03847,46.0227095 C140.213741,46.1987795 140.383133,46.38057 140.548506,46.5658105 Z M139.217648,45.2674086 C139.412966,45.4276593 139.648669,45.1348575 139.460089,44.978019 C139.261661,44.8127503 139.060466,44.6573421 138.851433,44.5055593 C138.649618,44.3635868 138.426568,44.6679803 138.631897,44.8124367 C138.833092,44.9586244 139.026615,45.1082996 139.217648,45.2674086 Z M137.692584,44.2202845 C137.916759,44.3367027 138.088225,44.0048732 137.87114,43.8882668 C137.642756,43.7656262 137.412563,43.6523066 137.173586,43.5512561 C136.939703,43.4558383 136.799888,43.8021323 137.027009,43.898353 C137.255128,43.9948622 137.474577,44.1032265 137.692584,44.2202845 Z M135.979773,43.5480822 C136.224211,43.6048612 136.308497,43.2404521 136.06689,43.1817913 C135.811291,43.1201574 135.562353,43.0747317 135.301609,43.0406343 C135.05683,43.0102752 135.004347,43.3830518 135.254663,43.4141009 C135.501907,43.4464044 135.737421,43.4896473 135.979773,43.5480822 Z M134.153681,43.3760392 C134.405311,43.3605836 134.378918,42.987669 134.131788,43.0003144 C133.868364,43.0158828 133.616064,43.0451254 133.356028,43.0896102 C133.111754,43.1355628 133.176523,43.5033716 133.423603,43.4599406 C133.668281,43.4181153 133.90583,43.3906416 134.153681,43.3760392 Z M132.356813,43.7423425 C132.588003,43.6591562 132.4649,43.3031272 132.227123,43.3886971 C131.981522,43.4764875 131.745907,43.5752674 131.510077,43.686241 C131.282729,43.7951573 131.452893,44.1315407 131.674982,44.0251334 C131.899297,43.919642 132.123233,43.82583 132.356813,43.7423425 Z M130.707621,44.5689621 C130.9186,44.4293731 130.705207,44.1207268 130.499233,44.2545325 C130.282578,44.3965301 130.076352,44.5437339 129.870328,44.7005096 C129.671622,44.8561939 129.906605,45.1470011 130.102656,44.9979532 C130.300174,44.8476382 130.499953,44.7049882 130.707621,44.5689621 L130.707621,44.5689621 Z M129.255087,45.7211637 C129.438055,45.5473643 129.171193,45.2799035 128.993357,45.4488103 C128.807304,45.62409 128.626422,45.8046762 128.450836,45.9902805 C128.280217,46.1724474 128.559593,46.4269617 128.728164,46.2469776 C128.897303,46.0666799 129.075064,45.8907604 129.255087,45.7211637 Z M127.990931,47.0885759 C128.148884,46.8932618 127.851445,46.6623197 127.695654,46.8524527 C127.535021,47.049611 127.379014,47.2511475 127.227508,47.4552808 C127.082448,47.6523261 127.381985,47.8798184 127.533201,47.6779808 C127.68137,47.4784139 127.833875,47.2813434 127.990931,47.0885759 Z M126.892249,48.5974965 C127.026199,48.3918076 126.712429,48.1828946 126.574194,48.3925603 C126.435037,48.6046347 126.300026,48.8195066 126.16839,49.0362602 C126.041671,49.2450227 126.362748,49.445405 126.493549,49.229931 C126.622822,49.0169534 126.755532,48.805845 126.892249,48.5974965 Z M125.934646,50.203102 C126.051202,49.9868501 125.720734,49.8046832 125.60074,50.0247362 C125.507897,50.1953115 125.417051,50.3669782 125.328051,50.5395732 L125.227106,50.5074202 C124.991149,50.4344079 124.873215,50.7913025 125.113368,50.8664349 C125.351297,50.9423702 125.589718,51.020689 125.827532,51.103085 C126.068532,51.1836745 126.183571,50.8275201 125.951685,50.7474826 C125.865415,50.7176002 125.779006,50.6881946 125.692458,50.6591151 C125.771675,50.5063288 125.852358,50.3542951 125.934646,50.203102 L125.934646,50.203102 Z M144.803039,94.4027081 C144.560232,94.3360561 144.463673,94.6993487 144.701917,94.7654361 C144.947556,94.833054 145.194345,94.8967453 145.442057,94.9564222 C145.688808,95.0137406 145.769845,94.6485788 145.530867,94.5905328 C145.287264,94.5317968 145.044608,94.4692095 144.803039,94.4027081 L144.803039,94.4027081 Z M146.632949,94.8255019 C146.389712,94.7822841 146.316222,95.1489764 146.564211,95.1956064 C146.815387,95.241973 147.066891,95.2831459 147.319696,95.3197524 C147.568925,95.355832 147.618576,94.9826916 147.373822,94.9472643 C147.125921,94.9113603 146.879258,94.8709778 146.632949,94.8255019 Z M148.490959,95.0697418 C148.24489,95.0520909 148.211798,95.427088 148.46363,95.4451153 C148.719419,95.4638576 148.974248,95.4763023 149.230656,95.4823867 C149.483462,95.4875678 149.485055,95.1111405 149.238771,95.1061099 C148.988822,95.1002639 148.740288,95.0880074 148.490959,95.0697418 L148.490959,95.0697418 Z M150.358562,95.0817851 C150.107564,95.0997621 150.137294,95.4724384 150.384778,95.4572338 C150.641591,95.4405238 150.897557,95.4128619 151.152524,95.378363 C151.396267,95.3430863 151.350193,94.9720408 151.099283,95.0057494 C150.85324,95.0390315 150.606413,95.0656521 150.358562,95.0817851 L150.358562,95.0817851 Z M152.191177,94.7881427 C151.949115,94.8545814 152.050238,95.2148004 152.289923,95.1515231 C152.542122,95.0836794 152.784171,95.0076186 153.02957,94.918511 C153.26588,94.8308963 153.12824,94.4801362 152.896796,94.5659696 C152.662647,94.6509875 152.432013,94.7234352 152.191177,94.7881427 L152.191177,94.7881427 Z M153.900802,94.1057413 C153.681531,94.230088 153.874573,94.5541019 154.088814,94.4325904 C154.316958,94.3043422 154.532576,94.1662336 154.745034,94.0137859 C154.945118,93.8661305 154.721511,93.5647227 154.51981,93.7109982 C154.318248,93.8555801 154.116698,93.9833014 153.900802,94.1057413 L153.900802,94.1057413 Z M155.349177,92.9900081 C155.174678,93.1763149 155.456999,93.4224742 155.624635,93.2486623 C155.802458,93.0647516 155.975024,92.8602671 156.128565,92.6559832 C156.277076,92.4542836 155.971118,92.2354475 155.823049,92.4330323 C155.678735,92.6251349 155.51637,92.8170869 155.349177,92.9900081 Z M156.40406,91.5015862 C156.292383,91.7258543 156.631535,91.8890782 156.743351,91.6696399 C156.859983,91.4413322 156.964164,91.2032143 157.057551,90.9646699 C157.146387,90.7287097 156.791422,90.6030333 156.703269,90.8304879 C156.613295,91.0603386 156.516458,91.2815583 156.40406,91.5015862 Z M157.024256,89.7768026 C156.969789,90.0213938 157.341186,90.09758 157.394415,89.8585714 C157.451738,89.609188 157.500037,89.3572705 157.536959,89.1040985 C157.570797,88.8560951 157.197125,88.8090135 157.161391,89.0521118 C157.125985,89.2953104 157.079317,89.5372295 157.024256,89.7768026 L157.024256,89.7768026 Z M157.265206,87.9471047 C157.257356,88.1990598 157.633986,88.2054954 157.644136,87.9617322 C157.655159,87.7070172 157.657383,87.4533309 157.65368,87.1984402 C157.648497,86.9491823 157.271993,86.9586413 157.274547,87.20534 C157.278111,87.4520513 157.275874,87.7005816 157.265206,87.9471047 Z M157.211181,86.0936715 C157.236689,86.336682 157.611916,86.3067243 157.588494,86.0561617 C157.563883,85.8032783 157.5339,85.5528035 157.49895,85.3011244 C157.462799,85.0551658 157.090049,85.1088712 157.123457,85.3537635 C157.157738,85.6003995 157.187063,85.8458437 157.211181,86.0936715 L157.211181,86.0936715 Z M156.932993,84.2526453 C156.983896,84.4925697 157.353966,84.4227314 157.304466,84.1770237 C157.254057,83.9291708 157.198667,83.6816943 157.13965,83.4357357 C157.079785,83.1929134 156.714531,83.2845175 156.771008,83.5239777 C156.829103,83.7658842 156.883418,84.0088696 156.932993,84.2526453 L156.932993,84.2526453 Z M155.893253,80.6663872 C155.981799,80.9015821 156.333351,80.7668606 156.249204,80.536621 C156.161025,80.2995945 156.07133,80.0634211 155.977653,79.8284646 C155.883419,79.5946747 155.534231,79.7415523 155.625317,79.9676144 C155.717705,80.1994975 155.806225,80.4324844 155.893253,80.6663872 L155.893253,80.6663872 Z M154.396668,77.2332165 C154.510582,77.4567445 154.845525,77.2851531 154.735858,77.0649621 C154.622651,76.8391132 154.507675,76.6147447 154.390967,76.3906647 C154.273969,76.1687425 153.94053,76.3480617 154.054988,76.5651666 C154.170596,76.7871767 154.284511,77.0094752 154.396668,77.2332165 L154.396668,77.2332165 Z M146.975097,66.4120429 C147.138068,66.5965306 147.426027,66.354599 147.261273,66.1651058 C147.094484,65.9752362 146.926975,65.7863201 146.758455,65.5979559 C146.592791,65.4158642 146.308524,65.6620863 146.475944,65.8490078 C146.643239,66.0360045 146.809522,66.2235407 146.975097,66.4120429 Z M145.714025,65.0150117 C145.884796,65.1973166 146.160923,64.9393524 145.992086,64.7591175 C145.8199,64.5743036 145.646842,64.3906438 145.472937,64.2074231 C145.297995,64.0260089 145.028732,64.2885897 145.197884,64.4665038 C145.370791,64.6486582 145.542838,64.8312642 145.714025,65.0150117 L145.714025,65.0150117 Z M144.411671,63.6550262 C144.589494,63.834107 144.854675,63.5650153 144.682122,63.3912285 C144.504615,63.2114577 144.326222,63.0328787 144.147059,62.8547262 C143.966024,62.6776651 143.706178,62.9494038 143.879691,63.1216099 C144.057818,63.2987337 144.235187,63.4762966 144.411671,63.6550262 L144.411671,63.6550262 Z M143.070194,62.3329894 C143.253276,62.5069142 143.510443,62.2302328 143.332859,62.0615393 C143.150182,61.8869245 142.966683,61.7135141 142.782387,61.5405929 C142.596891,61.3694656 142.343681,61.6471507 142.522933,61.8150538 C142.706154,61.986984 142.888578,62.1593908 143.070194,62.3329894 Z M141.690645,61.0501811 C141.878771,61.2187241 142.12762,60.9346285 141.945246,60.7712541 C141.757576,60.6020337 141.569172,60.4336915 141.379568,60.2666163 C141.18784,60.099792 140.947358,60.3863715 141.128253,60.5484537 C141.316783,60.7145379 141.504062,60.8819392 141.690645,61.0501811 L141.690645,61.0501811 Z M140.273416,59.8085206 C140.463475,59.9690975 140.709619,59.6828065 140.519699,59.5223426 C140.327124,59.3586169 140.133437,59.1962837 139.938915,59.0348413 C139.743825,58.8747913 139.507212,59.1668154 139.69607,59.3238796 C139.889441,59.4843812 140.081978,59.6457609 140.273416,59.8085206 L140.273416,59.8085206 Z M137.327368,57.4586791 C137.529246,57.6076769 137.752157,57.3050523 137.555095,57.1577481 C137.35194,57.0066051 137.148381,56.8565912 136.943697,56.7074806 C136.741945,56.5630241 136.518439,56.8651846 136.720672,57.011849 C136.923763,57.1598306 137.125768,57.3086903 137.327368,57.4586791 L137.327368,57.4586791 Z M135.798625,56.3565449 C136.006937,56.4986805 136.217664,56.1900342 136.015912,56.0481119 C135.808106,55.9034171 135.598997,55.7608047 135.38932,55.6187946 C135.181033,55.480987 134.972329,55.7909882 135.176963,55.9306148 C135.384997,56.0714833 135.59245,56.2129917 135.798625,56.3565449 L135.798625,56.3565449 Z M134.232405,55.3079279 C134.446746,55.442825 134.644706,55.1259366 134.438644,54.9921183 C134.225377,54.8553395 134.011692,54.7196395 133.796618,54.5856707 C133.583009,54.4538095 133.38601,54.7729059 133.595612,54.9048172 C133.808967,55.0376193 134.020882,55.1722906 134.232405,55.3079279 Z M132.628794,54.3182726 C132.842364,54.4419168 133.038541,54.1238743 132.82219,53.9945347 C132.60393,53.865609 132.384634,53.7389917 132.164528,53.6132023 C131.950149,53.4916155 131.757991,53.8161313 131.976795,53.940202 C132.195017,54.0649125 132.412405,54.190451 132.628794,54.3182726 L132.628794,54.3182726 Z M130.986883,53.3934378 C131.209087,53.5113865 131.38423,53.1789046 131.166375,53.0619219 C130.942882,52.9422169 130.71839,52.824356 130.492723,52.7087281 C130.274173,52.5977419 130.094289,52.9265732 130.319374,53.0434555 C130.542968,53.1580547 130.765425,53.2748242 130.986883,53.3934378 L130.986883,53.3934378 Z M127.58629,51.7733554 C127.819048,51.8683341 127.961024,51.5229433 127.732462,51.4260828 C127.497214,51.3290342 127.26194,51.2345824 127.024935,51.1418367 C126.788852,51.0517255 126.658012,51.4040537 126.887838,51.4927473 C127.121898,51.5834231 127.354277,51.6776491 127.58629,51.7733554 Z M124.029678,50.5494336 C124.271019,50.61315 124.369171,50.2521532 124.12855,50.1861034 C123.881496,50.120568 123.63501,50.0586957 123.386237,49.999897 C123.138879,49.9456396 123.06128,50.310977 123.301471,50.3667398 C123.545517,50.424422 123.7873,50.4851652 124.029678,50.5494336 Z M122.197468,50.1400755 C122.446064,50.1811983 122.506004,49.8121099 122.262413,49.7692936 C122.010657,49.7250973 121.759279,49.6861825 121.506018,49.651533 C121.256335,49.617975 121.210349,49.9916047 121.455457,50.0245229 C121.703915,50.0585452 121.950476,50.0967198 122.197468,50.1400755 L122.197468,50.1400755 Z M120.336943,49.9127213 C120.583365,49.9278506 120.613171,49.5551995 120.361212,49.5371471 C120.104311,49.5217041 119.85062,49.5119817 119.593276,49.5082809 C119.340433,49.5056966 119.343011,49.8820737 119.589307,49.8846078 C119.839838,49.8881831 120.086842,49.8977049 120.336943,49.9127213 Z M118.470414,49.9231337 C118.71623,49.903024 118.690658,49.5274623 118.439091,49.5480613 C118.181153,49.5704292 117.92788,49.5992201 117.671939,49.6383983 C117.421902,49.6797469 117.488604,50.0477188 117.731627,50.0100585 C117.978049,49.9722978 118.22207,49.9446736 118.470414,49.9231337 L118.470414,49.9231337 Z M116.644321,50.2461064 C116.885991,50.1764688 116.775881,49.8163125 116.538067,49.8848336 C116.288295,49.9556129 116.045563,50.0387867 115.803514,50.132122 C115.571641,50.2241777 115.710507,50.5718265 115.942962,50.4821042 C116.17165,50.3938999 116.408365,50.3129716 116.644321,50.2461064 L116.644321,50.2461064 Z M114.950105,50.9643115 C115.167139,50.8345579 114.965754,50.5155745 114.755015,50.6415771 C114.532141,50.7721963 114.313982,50.9201152 114.108666,51.0764769 C113.910934,51.2314085 114.144969,51.5229935 114.341551,51.3734939 C114.533253,51.2276199 114.742071,51.086237 114.950105,50.9643115 Z M113.530158,52.1150579 C113.699575,51.9288013 113.414006,51.681099 113.248835,51.8627013 C113.072276,52.0575639 112.913905,52.2542705 112.760161,52.4672857 C112.615063,52.6704531 112.926621,52.8850114 113.070203,52.6839892 C113.214871,52.4835567 113.364039,52.2984166 113.530158,52.1150579 L113.530158,52.1150579 Z M112.511628,53.6291345 C112.618401,53.4016925 112.276556,53.2467358 112.169101,53.4676544 C112.056742,53.70305 111.960006,53.9349707 111.870247,54.1797124 C111.786657,54.4156098 112.142898,54.5375102 112.227436,54.3060914 C112.312821,54.0733302 112.404792,53.8530138 112.511628,53.6291345 Z M111.926231,55.3670527 C111.975831,55.120906 111.605723,55.0512182 111.554935,55.2906031 C111.502515,55.541931 111.458388,55.7921925 111.424993,56.0467821 C111.393796,56.2944342 111.767835,56.3386305 111.801142,56.0944533 C111.834209,55.850088 111.875884,55.6083069 111.926231,55.3670527 Z M111.713179,57.2011791 C111.720952,56.9516201 111.341756,56.9446827 111.334121,57.1902147 C111.326171,57.4444656 111.326815,57.6996448 111.334033,57.9539082 C111.34187,58.2052611 111.720636,58.1862679 111.713065,57.9426929 C111.706087,57.6955551 111.706277,57.4483169 111.713179,57.2011791 Z M111.788452,59.0546499 C111.759543,58.8042379 111.385858,58.8516582 111.411366,59.0944178 C111.437835,59.3465109 111.47003,59.5988549 111.508115,59.8494803 C111.546188,60.0913868 111.919481,60.0410936 111.883001,59.7928518 C111.84594,59.5476711 111.814339,59.3012358 111.788452,59.0546499 Z M112.082705,60.8932423 C112.031941,60.6540456 111.659647,60.7257155 111.711712,60.9711221 C111.764068,61.2187115 111.82076,61.4658243 111.882066,61.7113814 C111.944572,61.9543291 112.308814,61.8590243 112.25005,61.62053 C112.18992,61.3792006 112.134164,61.1365414 112.082705,60.8932423 L112.082705,60.8932423 Z M112.546465,62.7014004 C112.474162,62.4630567 112.113712,62.5717597 112.183132,62.8091374 C112.255713,63.0513701 112.331782,63.2924612 112.411213,63.5325738 C112.492124,63.7708924 112.847746,63.6470851 112.771335,63.4146502 C112.692877,63.1780377 112.618009,62.9401707 112.546465,62.7014004 Z" id="Shape"></path>
                    </g>
                </g>
            </g>
        </g>
    </g>
</svg>